<svg width="592" height="1028" viewBox="0 0 592 1028" fill="none" xmlns="http://www.w3.org/2000/svg">
<path d="M543.531 739.273C550.011 799.659 557.994 872.472 523.417 917.096C475.034 979.435 385.18 1002.85 286.583 1002.85C203.312 1002.85 132.622 995.024 87.2281 953.58C34.3524 905.292 20.269 843.644 29.6172 739.273C42.6115 594.287 90.9944 475.693 286.583 475.693C449.305 475.693 527.996 594.633 543.531 739.273Z" fill="white"/>
<path d="M286.582 1005.45C237.387 1005.45 202.086 1002.63 172.157 996.286C135.386 988.509 107.03 975.166 85.4823 955.498C33.6434 908.213 17.3145 847.533 27.0429 739.048C34.7324 653.17 53.9815 593.579 87.6077 551.495C129.753 498.748 194.845 473.1 286.582 473.1C364.082 473.1 426.548 499.491 472.201 551.53C512.29 597.225 537.863 662.036 546.105 738.997L546.192 739.739C552.585 799.296 560.551 873.422 525.456 918.686C469.868 990.392 364.876 1005.45 286.582 1005.45ZM286.582 478.32C196.521 478.32 132.794 503.328 91.6509 554.762C58.6986 596.016 39.8121 654.743 32.2091 739.55C22.6535 846.185 38.5682 905.672 88.9728 951.696C135.766 994.402 211.658 1000.3 286.582 1000.3C363.719 1000.3 467.068 985.588 521.361 915.61C555.177 872.005 547.281 799.037 541.043 740.396L540.956 739.653C532.8 663.764 507.675 599.939 468.381 555.055C423.662 504.088 362.526 478.285 286.582 478.285V478.32Z" fill="black"/>
<path d="M435.931 523.687C435.931 523.687 392.058 584.661 288.121 584.661C185.22 584.661 140.311 523.687 140.311 523.687V487.013H435.931V523.687Z" fill="#FF3807"/>
<path d="M288.086 587.253C234.312 587.253 196.504 570.454 174.213 556.369C150.022 541.039 138.652 525.864 138.185 525.26L137.684 524.586V484.455H438.488V524.568L438.004 525.243C437.555 525.83 392.144 587.253 288.086 587.253ZM142.937 522.806C148.121 529.287 193.566 582.068 288.086 582.068C383.659 582.068 428.224 529.27 433.235 522.823V489.605H142.868L142.937 522.806Z" fill="black"/>
<path d="M483.967 150.965C484.399 149.133 484.814 147.249 485.143 145.314C496.236 81.7994 484.918 12.9446 454.402 3.59457C426.219 -5.04684 386.13 48.6165 367.797 96.6628C341.428 88.0214 317.686 86.2931 288.086 86.2931C259.868 86.2931 238.061 87.6409 212.712 95.5218C194.257 48.0632 153.703 -4.995 125.744 3.59457C95.2284 12.9619 83.9097 81.8167 94.986 145.314C95.1242 146.04 95.2797 146.731 95.418 147.44C57.2991 188.59 34.2651 242.098 34.2651 300.6C34.2651 430.55 147.913 535.889 288.086 535.889C428.258 535.889 541.889 430.55 541.889 300.6C541.889 243.705 520.151 191.58 483.967 150.965Z" fill="white"/>
<path d="M288.086 538.429C146.704 538.429 31.6733 431.724 31.6733 300.548C31.6733 244.137 53.3075 189.523 92.6186 146.61C92.6186 146.316 92.4979 146.005 92.4288 145.711C86.9166 114.101 86.8472 80.5203 92.2212 53.5764C98.0444 24.403 109.691 5.73766 125.052 1.03673C134.798 -1.9532 151.335 0.0859735 174.801 26.7534C190.076 44.1399 204.747 68.4744 214.302 92.2729C238.494 85.0832 259.851 83.6314 288.155 83.6314C317.15 83.6314 340.513 85.36 366.329 93.3792C384.299 47.8908 424.405 -8.41698 455.232 1.03673C470.524 5.73766 482.154 24.403 487.977 53.5764C493.368 80.5203 493.282 114.066 487.769 145.711C487.51 147.146 487.216 148.632 486.871 150.205C524.074 192.496 544.55 245.831 544.55 300.566C544.481 431.725 429.468 538.429 288.086 538.429ZM131.913 5.21904C130.081 5.20451 128.258 5.46705 126.505 5.99711C99.1336 14.3966 85.8797 77.9625 97.5435 144.812C97.5435 145.227 97.6992 145.625 97.7856 146.023L98.2176 148.183L97.319 149.151C58.3362 191.252 36.8404 245.018 36.8404 300.548C36.8404 428.856 149.538 533.244 288.069 533.244C426.6 533.244 539.28 428.856 539.28 300.548C539.28 246.677 518.942 194.138 482.015 152.642L481.117 151.622L481.428 150.309C481.894 148.339 482.275 146.541 482.569 144.812C494.232 77.9625 480.979 14.3966 453.625 5.99711C441.823 2.385 426.116 11.0781 409.355 30.4867C394.114 48.1325 379.478 73.1922 370.199 97.5092L369.318 99.8079L366.967 99.0476C340.858 90.5272 317.427 88.8163 288.069 88.8163C259.368 88.8163 237.958 90.3199 213.455 97.9244L211.157 98.6501L210.276 96.386C192.582 50.8457 156.83 5.21904 131.913 5.21904Z" fill="black"/>
<path d="M167.681 363.752C212.687 363.752 249.172 327.26 249.172 282.246C249.172 237.231 212.687 200.74 167.681 200.74C122.675 200.74 86.1907 237.231 86.1907 282.246C86.1907 327.26 122.675 363.752 167.681 363.752Z" fill="#FEC700"/>
<path d="M167.681 337.585C198.239 337.585 223.011 312.809 223.011 282.246C223.011 251.683 198.239 226.906 167.681 226.906C137.124 226.906 112.352 251.683 112.352 282.246C112.352 312.809 137.124 337.585 167.681 337.585Z" fill="black"/>
<path d="M412.586 363.752C457.592 363.752 494.076 327.26 494.076 282.246C494.076 237.231 457.592 200.74 412.586 200.74C367.58 200.74 331.095 237.231 331.095 282.246C331.095 327.26 367.58 363.752 412.586 363.752Z" fill="#FEC700"/>
<path d="M412.586 337.585C443.143 337.585 467.915 312.809 467.915 282.246C467.915 251.683 443.143 226.906 412.586 226.906C382.028 226.906 357.256 251.683 357.256 282.246C357.256 312.809 382.028 337.585 412.586 337.585Z" fill="black"/>
<path d="M139.654 196.109C138.802 196.111 137.969 195.86 137.259 195.39C136.548 194.919 135.993 194.249 135.662 193.464L122.841 163.133C122.619 162.611 122.503 162.051 122.498 161.484C122.494 160.917 122.602 160.354 122.816 159.829C123.029 159.304 123.344 158.826 123.743 158.423C124.142 158.02 124.616 157.7 125.139 157.481C125.661 157.26 126.221 157.143 126.788 157.139C127.355 157.134 127.917 157.243 128.442 157.456C128.967 157.67 129.444 157.985 129.847 158.384C130.25 158.782 130.571 159.257 130.79 159.78L143.628 190.094C144.071 191.151 144.079 192.34 143.648 193.402C143.218 194.465 142.384 195.313 141.33 195.763C140.801 195.993 140.231 196.111 139.654 196.109Z" fill="black"/>
<path d="M174.109 191.287C173.26 191.288 172.428 191.04 171.719 190.573C171.009 190.106 170.452 189.44 170.117 188.66L157.296 158.328C156.853 157.271 156.845 156.082 157.276 155.02C157.706 153.958 158.54 153.109 159.594 152.659C160.116 152.438 160.676 152.321 161.243 152.317C161.81 152.312 162.372 152.42 162.897 152.634C163.422 152.848 163.899 153.163 164.302 153.562C164.705 153.96 165.026 154.435 165.245 154.958L178.083 185.289C178.526 186.346 178.534 187.536 178.103 188.598C177.673 189.66 176.84 190.509 175.785 190.958C175.253 191.175 174.684 191.286 174.109 191.287Z" fill="black"/>
<path d="M438.367 193.706C437.773 193.707 437.186 193.589 436.639 193.36C435.585 192.911 434.751 192.063 434.32 191.001C433.89 189.939 433.897 188.749 434.34 187.692L447.179 157.361C447.625 156.308 448.47 155.474 449.529 155.044C450.588 154.613 451.775 154.619 452.829 155.062C453.883 155.512 454.717 156.36 455.148 157.422C455.578 158.485 455.571 159.674 455.127 160.73L442.306 191.062C441.975 191.837 441.428 192.499 440.728 192.968C440.029 193.437 439.209 193.694 438.367 193.706Z" fill="black"/>
<path d="M403.912 188.884C403.318 188.893 402.728 188.776 402.184 188.539C401.661 188.32 401.186 187.999 400.787 187.596C400.389 187.193 400.074 186.716 399.86 186.19C399.647 185.665 399.539 185.103 399.543 184.536C399.547 183.969 399.664 183.409 399.885 182.887L412.707 152.556C413.156 151.501 414.005 150.668 415.067 150.237C416.129 149.807 417.317 149.813 418.374 150.257C418.898 150.478 419.372 150.8 419.771 151.204C420.17 151.609 420.486 152.088 420.699 152.615C420.913 153.141 421.02 153.705 421.016 154.273C421.011 154.841 420.894 155.403 420.672 155.926L407.834 186.24C407.512 187.017 406.968 187.682 406.271 188.152C405.573 188.623 404.753 188.877 403.912 188.884Z" fill="black"/>
<path d="M64.989 375.642C64.1396 375.643 63.3085 375.392 62.6013 374.921C61.894 374.451 61.3417 373.782 61.0142 372.998C60.7926 372.476 60.6768 371.915 60.6725 371.348C60.6682 370.781 60.7753 370.219 60.9889 369.694C61.2024 369.169 61.5183 368.691 61.917 368.288C62.3157 367.885 62.7897 367.565 63.3125 367.346L99.3584 352.086C100.415 351.642 101.604 351.635 102.666 352.065C103.728 352.496 104.576 353.33 105.026 354.384C105.247 354.906 105.364 355.466 105.368 356.033C105.373 356.6 105.265 357.162 105.051 357.687C104.838 358.212 104.523 358.69 104.124 359.093C103.725 359.496 103.25 359.817 102.727 360.036L66.6824 375.296C66.1456 375.52 65.5705 375.637 64.989 375.642Z" fill="black"/>
<path d="M73.9222 405.541C73.1087 405.541 72.3116 405.312 71.6214 404.881C70.9312 404.451 70.3758 403.836 70.0175 403.105C69.5238 402.071 69.4589 400.883 69.8377 399.801C70.2165 398.72 71.008 397.832 72.039 397.332L124.932 371.84C125.443 371.593 125.999 371.45 126.566 371.418C127.133 371.386 127.701 371.466 128.237 371.654C128.773 371.842 129.266 372.134 129.69 372.512C130.113 372.891 130.457 373.351 130.703 373.863C130.949 374.373 131.093 374.927 131.125 375.493C131.156 376.059 131.075 376.625 130.888 377.16C130.7 377.695 130.408 378.187 130.03 378.609C129.651 379.03 129.193 379.373 128.681 379.617L75.7886 405.109C75.2073 405.393 74.569 405.541 73.9222 405.541Z" fill="black"/>
<path d="M89.5251 431.033C88.753 431.032 87.9958 430.825 87.3306 430.433C86.6653 430.041 86.1162 429.478 85.741 428.804C85.4673 428.305 85.2951 427.757 85.2339 427.191C85.1726 426.625 85.2235 426.053 85.3841 425.507C85.5446 424.96 85.8118 424.452 86.1696 424.009C86.5274 423.567 86.9687 423.199 87.4689 422.928L148.915 389.088C149.413 388.814 149.96 388.642 150.524 388.581C151.089 388.52 151.66 388.572 152.204 388.732C152.749 388.893 153.256 389.16 153.697 389.517C154.138 389.875 154.504 390.316 154.773 390.816C155.047 391.314 155.219 391.861 155.28 392.425C155.341 392.99 155.289 393.561 155.129 394.105C154.968 394.65 154.702 395.157 154.344 395.598C153.986 396.039 153.545 396.405 153.045 396.675L91.6167 430.532C90.9724 430.87 90.2529 431.043 89.5251 431.033Z" fill="black"/>
<path d="M509.265 377.146C508.672 377.147 508.085 377.029 507.537 376.8L471.475 361.539C470.953 361.319 470.481 360.998 470.084 360.594C469.687 360.191 469.374 359.713 469.162 359.188C468.95 358.663 468.843 358.101 468.849 357.534C468.854 356.968 468.972 356.409 469.194 355.888C469.411 355.364 469.73 354.888 470.133 354.488C470.536 354.088 471.013 353.772 471.539 353.558C472.064 353.344 472.627 353.237 473.195 353.242C473.762 353.248 474.323 353.366 474.844 353.59L510.907 368.833C511.429 369.056 511.902 369.378 512.299 369.783C512.696 370.189 513.01 370.669 513.222 371.195C513.433 371.722 513.539 372.284 513.534 372.852C513.528 373.419 513.41 373.98 513.188 374.502C512.86 375.275 512.315 375.937 511.618 376.406C510.922 376.876 510.105 377.133 509.265 377.146Z" fill="black"/>
<path d="M500.349 406.994C499.696 406.995 499.052 406.847 498.466 406.562L445.573 381.069C444.543 380.573 443.752 379.688 443.373 378.609C442.994 377.531 443.058 376.346 443.551 375.314C443.797 374.802 444.142 374.343 444.565 373.964C444.988 373.585 445.482 373.293 446.018 373.106C446.554 372.918 447.121 372.837 447.688 372.869C448.255 372.901 448.811 373.045 449.323 373.292L502.215 398.784C502.727 399.03 503.186 399.375 503.565 399.798C503.944 400.221 504.235 400.715 504.423 401.251C504.611 401.787 504.691 402.355 504.66 402.922C504.628 403.489 504.484 404.045 504.237 404.557C503.883 405.287 503.331 405.903 502.644 406.334C501.956 406.765 501.16 406.994 500.349 406.994Z" fill="black"/>
<path d="M484.729 432.486C484.003 432.484 483.29 432.299 482.655 431.95L421.208 398.093C420.203 397.545 419.456 396.619 419.132 395.521C418.808 394.422 418.933 393.24 419.48 392.234C420.032 391.227 420.959 390.479 422.06 390.155C423.162 389.831 424.347 389.957 425.355 390.505L486.785 424.362C487.792 424.914 488.539 425.842 488.863 426.944C489.187 428.045 489.061 429.229 488.513 430.238C488.137 430.914 487.589 431.478 486.924 431.873C486.259 432.268 485.502 432.479 484.729 432.486Z" fill="black"/>
<path d="M258.417 377.198C250.14 377.198 242.088 376.506 237.164 370.613C232.93 365.549 231.98 357.928 234.174 346.642C234.278 346.082 234.491 345.547 234.802 345.07C235.113 344.592 235.515 344.181 235.986 343.86C236.456 343.539 236.986 343.313 237.544 343.197C238.102 343.082 238.677 343.078 239.237 343.186C239.797 343.289 240.331 343.502 240.808 343.813C241.286 344.124 241.697 344.527 242.018 344.997C242.34 345.468 242.564 345.998 242.68 346.556C242.796 347.114 242.8 347.689 242.693 348.249C241.086 356.562 241.466 362.213 243.833 365.03C246.874 368.677 254.305 368.591 262.184 368.487C264.172 368.487 266.21 368.487 268.215 368.487C277.546 368.677 282.816 354.955 283.766 352.068V328.288C283.766 327.142 284.222 326.042 285.032 325.232C285.842 324.421 286.94 323.967 288.086 323.967C289.232 323.967 290.331 324.421 291.141 325.232C291.951 326.042 292.406 327.142 292.406 328.288V353.382L292.233 353.97C291.957 354.92 285.321 377.319 268.042 377.128C266.106 377.128 264.154 377.128 262.236 377.128L258.417 377.198Z" fill="#FF3807"/>
<path d="M317.738 377.198H313.919C311.984 377.198 310.048 377.198 308.113 377.198H307.819C290.833 377.198 284.215 354.989 283.939 354.039L283.766 353.452V328.357C283.766 327.211 284.221 326.111 285.031 325.301C285.842 324.491 286.94 324.036 288.086 324.036C289.231 324.036 290.331 324.491 291.141 325.301C291.951 326.111 292.406 327.211 292.406 328.357V352.138C293.391 355.007 298.54 368.695 307.957 368.556C309.979 368.556 312.001 368.556 314.005 368.556C321.885 368.66 329.315 368.746 332.356 365.1C334.724 362.283 335.104 356.631 333.497 348.318C333.387 347.758 333.389 347.183 333.504 346.624C333.619 346.065 333.844 345.535 334.165 345.063C334.487 344.592 334.898 344.189 335.377 343.878C335.855 343.568 336.392 343.356 336.953 343.254C337.513 343.146 338.088 343.151 338.646 343.267C339.203 343.382 339.732 343.608 340.203 343.929C340.674 344.25 341.077 344.662 341.388 345.139C341.699 345.617 341.912 346.15 342.015 346.711C344.21 357.996 343.26 365.618 339.044 370.682C334.085 376.506 326.015 377.198 317.738 377.198Z" fill="#FF3807"/>
<path d="M307.872 318.488C309.6 324.762 297.78 335.391 288.017 335.391C278.254 335.391 266.539 324.727 268.301 318.488C269.718 313.459 281.105 311.679 288.017 311.679C294.929 311.679 306.437 313.424 307.872 318.488Z" fill="black"/>
<path d="M182.991 103.3C172.624 106.22 168.632 106.48 150.592 115.19C135.282 122.587 134.072 124.005 125.657 131.264C114.305 141.063 112.093 55.0631 130.703 46.9229C149.97 38.4889 192.08 100.725 182.991 103.3Z" fill="#FF3807"/>
<path d="M401.837 108.19C412.205 111.111 416.214 111.37 434.237 120.081C449.546 127.478 450.756 128.913 459.172 136.154C470.524 145.954 472.753 59.9538 454.125 51.8136C434.876 43.3969 392.731 105.633 401.837 108.19Z" fill="#FF3807"/>
<path d="M288.069 663.091C317.939 663.091 342.154 638.871 342.154 608.995C342.154 579.119 317.939 554.9 288.069 554.9C258.198 554.9 233.983 579.119 233.983 608.995C233.983 638.871 258.198 663.091 288.069 663.091Z" fill="#FEC700"/>
<path d="M288.086 665.666C273.058 665.652 258.651 659.675 248.025 649.047C237.398 638.419 231.423 624.008 231.409 608.977C231.423 593.947 237.398 579.537 248.025 568.909C258.651 558.281 273.058 552.304 288.086 552.29C303.112 552.308 317.518 558.287 328.143 568.914C338.768 579.541 344.745 593.948 344.763 608.977C344.745 624.006 338.768 638.415 328.143 649.042C317.518 659.669 303.112 665.647 288.086 665.666ZM288.086 557.475C274.435 557.493 261.348 562.925 251.695 572.58C242.042 582.234 236.611 595.324 236.593 608.977C236.611 622.631 242.042 635.721 251.695 645.376C261.348 655.031 274.435 660.462 288.086 660.481C301.737 660.462 314.824 655.031 324.477 645.376C334.13 635.721 339.561 622.631 339.58 608.977C339.561 595.324 334.13 582.234 324.477 572.58C314.824 562.925 301.737 557.493 288.086 557.475Z" fill="black"/>
<path d="M305.815 615.286C305.815 610.583 303.947 606.073 300.622 602.748C297.297 599.422 292.788 597.554 288.086 597.554C283.384 597.554 278.875 599.422 275.55 602.748C272.225 606.073 270.357 610.583 270.357 615.286C270.366 619.565 271.926 623.695 274.747 626.912C277.569 630.128 281.461 632.211 285.702 632.776V663.471C286.496 663.471 287.274 663.591 288.086 663.591C288.898 663.591 289.675 663.592 290.47 663.471V632.776C294.709 632.208 298.6 630.124 301.421 626.908C304.242 623.693 305.803 619.564 305.815 615.286Z" fill="black"/>
<path d="M350.302 996.35C407.254 963.463 401.345 846.586 337.104 735.297C272.864 624.009 174.618 560.451 117.666 593.339C60.7138 626.226 66.622 743.104 130.863 854.393C195.103 965.681 293.349 1029.24 350.302 996.35Z" fill="#FEC700"/>
<path d="M316.2 1007.66C293.978 1007.66 268.611 998.879 241.897 981.614C200.098 954.583 159.871 909.855 128.595 855.691C97.3188 801.526 78.7254 744.302 76.2026 694.597C73.6625 644.269 87.9181 607.509 116.343 591.091C144.768 574.672 183.734 580.721 226.034 608.062C267.816 635.11 308.061 679.821 339.319 734.002C370.578 788.184 389.206 845.39 391.712 895.096C394.269 945.423 380.013 982.184 351.588 998.602C340.801 1004.7 328.589 1007.83 316.2 1007.66ZM151.836 587.219C140.343 587.043 129.012 589.93 119.004 595.584C92.3418 610.965 79.002 646.05 81.4557 694.321C83.9267 743.231 102.295 799.625 133.156 853.098C164.018 906.571 203.658 950.677 244.766 977.258C285.356 1003.53 322.403 1009.51 349.065 994.109C375.728 978.71 389.05 943.643 386.614 895.355C384.143 846.461 365.775 790.068 334.914 736.595C282.625 646.085 207.718 587.219 151.836 587.219Z" fill="black"/>
<path d="M140.602 646.205C180.536 611.887 190.493 557.973 162.842 525.785C135.191 493.597 80.4022 495.325 40.4683 529.643C0.534363 563.962 -9.42262 617.876 18.2287 650.064C45.88 682.251 100.668 680.524 140.602 646.205Z" fill="white"/>
<path d="M109.191 664.767C108.453 664.766 107.728 664.576 107.084 664.216C106.44 663.856 105.897 663.338 105.509 662.711L78.8298 619.417C78.2277 618.443 78.0375 617.269 78.3 616.154C78.5624 615.039 79.2561 614.075 80.2296 613.471C80.7129 613.174 81.2504 612.975 81.8107 612.885C82.3711 612.795 82.9437 612.817 83.4957 612.948C84.0477 613.08 84.5683 613.319 85.0279 613.652C85.4875 613.985 85.8765 614.406 86.1737 614.889L112.853 658.096C113.455 659.07 113.646 660.244 113.384 661.359C113.122 662.474 112.428 663.438 111.454 664.041C110.785 664.495 109.999 664.746 109.191 664.767Z" fill="#FF3807"/>
<path d="M144.354 640.933C143.616 640.935 142.889 640.747 142.245 640.386C141.6 640.026 141.059 639.507 140.674 638.877L113.994 595.67C113.697 595.186 113.497 594.649 113.408 594.088C113.318 593.528 113.339 592.955 113.471 592.403C113.603 591.851 113.842 591.33 114.175 590.87C114.507 590.411 114.927 590.022 115.411 589.724C115.893 589.425 116.431 589.223 116.992 589.132C117.553 589.041 118.126 589.063 118.678 589.194C119.231 589.326 119.752 589.566 120.212 589.9C120.671 590.234 121.06 590.656 121.356 591.141L148.035 634.348C148.333 634.832 148.532 635.369 148.622 635.93C148.711 636.49 148.69 637.063 148.558 637.615C148.427 638.167 148.188 638.688 147.855 639.148C147.522 639.607 147.101 639.996 146.618 640.294C145.937 640.712 145.153 640.934 144.354 640.933Z" fill="#FF3807"/>
<path d="M72.0045 674.946C50.1631 674.946 29.9627 667.03 16.2254 651.061C-12.3033 617.826 -2.19467 562.175 38.6889 526.987C79.5725 491.799 136.164 490.192 164.71 523.41C178.533 539.587 183.855 561.432 179.501 584.972C175.147 608.511 161.945 630.494 142.177 647.484C120.992 665.734 95.5221 674.946 72.0045 674.946ZM109.017 504.658C86.6748 504.658 62.3624 513.472 42.128 530.91C3.35249 564.249 -6.51411 616.616 20.1656 647.673C46.8454 678.731 100.083 676.864 138.876 643.543C157.745 627.331 170.377 606.195 174.472 584.038C178.568 561.882 173.695 541.747 160.838 526.781C147.982 511.814 129.373 504.658 109.017 504.658Z" fill="black"/>
<path d="M484.728 662.589C516.154 662.589 541.63 614.375 541.63 554.9C541.63 495.425 516.154 447.21 484.728 447.21C453.302 447.21 427.826 495.425 427.826 554.9C427.826 614.375 453.302 662.589 484.728 662.589Z" fill="white"/>
<path d="M484.745 665.164C451.914 665.164 425.234 615.683 425.234 554.882C425.234 494.081 451.931 444.601 484.745 444.601C517.559 444.601 544.239 494.081 544.239 554.882C544.239 615.683 517.542 665.164 484.745 665.164ZM484.745 449.785C454.782 449.785 430.418 496.933 430.418 554.882C430.418 612.832 454.782 659.979 484.745 659.979C514.708 659.979 539.055 612.832 539.055 554.882C539.055 496.933 514.691 449.785 484.745 449.785Z" fill="black"/>
<path d="M589.207 479.962C589.674 437.528 547.373 402.658 494.726 402.079C442.079 401.5 399.022 435.431 398.555 477.866C398.089 520.3 440.389 555.17 493.036 555.749C545.684 556.328 588.74 522.397 589.207 479.962Z" fill="white"/>
<path d="M459.828 550.735C459.587 550.76 459.344 550.76 459.102 550.735C458.542 550.643 458.006 550.44 457.524 550.14C457.042 549.839 456.624 549.447 456.294 548.984C455.965 548.521 455.731 547.998 455.605 547.444C455.479 546.89 455.463 546.317 455.56 545.758L464.079 495.637C464.285 494.521 464.924 493.531 465.856 492.884C466.788 492.236 467.937 491.984 469.055 492.181C470.185 492.371 471.193 493.002 471.857 493.935C472.521 494.869 472.788 496.028 472.598 497.158L464.079 547.278C463.876 548.256 463.342 549.133 462.568 549.763C461.793 550.392 460.826 550.736 459.828 550.735Z" fill="#FF3807"/>
<path d="M501.974 556.058C501.732 556.075 501.489 556.075 501.247 556.058C500.687 555.966 500.15 555.764 499.669 555.463C499.187 555.163 498.769 554.77 498.44 554.307C498.111 553.844 497.876 553.321 497.75 552.767C497.624 552.213 497.609 551.64 497.705 551.08L506.224 500.96C506.415 499.83 507.045 498.822 507.978 498.158C508.912 497.494 510.071 497.227 511.201 497.417C512.314 497.635 513.297 498.28 513.943 499.213C514.588 500.146 514.844 501.293 514.657 502.412L506.137 552.532C505.952 553.508 505.437 554.39 504.679 555.032C503.922 555.674 502.966 556.036 501.974 556.058Z" fill="#FF3807"/>
<path d="M494.561 558.512H493.213C439.231 557.925 395.704 521.821 396.171 478.026C396.637 434.232 440.977 399.148 494.958 399.683C548.94 400.219 592.484 436.374 592 480.169C591.533 523.584 547.938 558.512 494.561 558.512ZM493.61 404.834C443.067 404.834 401.804 437.463 401.355 478.06C400.905 518.986 442.151 552.757 493.282 553.31C544.412 553.863 586.367 521.026 586.816 480.1C587.265 439.157 546.036 405.403 494.906 404.85L493.61 404.834Z" fill="black"/>
<path d="M470.49 1014.71C522.788 1008.63 561.213 969.527 556.314 927.373C551.415 885.22 505.048 855.977 452.75 862.057C400.452 868.137 362.027 907.237 366.926 949.391C371.824 991.544 418.192 1020.79 470.49 1014.71Z" fill="white"/>
<path d="M435.792 1014.43H435.602C435.036 1014.41 434.479 1014.28 433.964 1014.04C433.449 1013.8 432.987 1013.46 432.603 1013.05C432.219 1012.63 431.922 1012.14 431.728 1011.6C431.534 1011.07 431.447 1010.51 431.472 1009.94L433.581 959.128C433.63 957.985 434.131 956.908 434.973 956.133C435.815 955.359 436.931 954.95 438.074 954.997C439.218 955.046 440.296 955.547 441.073 956.389C441.85 957.23 442.263 958.346 442.221 959.491L440.095 1010.3C440.051 1011.41 439.578 1012.46 438.776 1013.23C437.974 1014 436.904 1014.43 435.792 1014.43Z" fill="#FF3807"/>
<path d="M478.266 1014.38H478.093C477.525 1014.36 476.968 1014.23 476.452 1013.99C475.937 1013.75 475.473 1013.41 475.088 1012.99C474.703 1012.58 474.403 1012.09 474.207 1011.55C474.011 1011.02 473.923 1010.46 473.946 1009.89L476.054 959.076C476.079 958.509 476.214 957.952 476.454 957.437C476.694 956.922 477.033 956.459 477.452 956.075C477.871 955.692 478.362 955.395 478.896 955.201C479.43 955.007 479.997 954.92 480.564 954.946C481.131 954.968 481.687 955.102 482.202 955.34C482.716 955.578 483.18 955.916 483.563 956.333C483.947 956.751 484.244 957.24 484.438 957.773C484.632 958.306 484.72 958.873 484.694 959.439L482.586 1010.25C482.532 1011.36 482.055 1012.41 481.251 1013.18C480.447 1013.95 479.378 1014.38 478.266 1014.38Z" fill="#FF3807"/>
<path d="M456.476 1018.7C408.75 1018.7 368.626 989.995 364.012 950.314C358.949 906.813 398.468 866.337 452.138 860.097C505.809 853.858 553.501 884.189 558.564 927.673C563.627 971.174 524.109 1011.65 470.438 1017.89C465.803 1018.42 461.142 1018.7 456.476 1018.7ZM466.084 864.47C461.609 864.474 457.137 864.734 452.692 865.248C401.907 871.158 364.427 909.042 369.162 949.709C373.464 986.746 411.341 1013.52 456.458 1013.52C460.933 1013.51 465.405 1013.25 469.85 1012.74C520.635 1006.83 558.115 968.945 553.38 928.278C549.078 891.241 511.201 864.47 466.084 864.47Z" fill="black"/>
<path d="M132.825 1024C185.123 1017.92 223.548 978.817 218.65 936.664C213.751 894.511 167.383 865.267 115.085 871.347C62.7865 877.427 24.3619 916.528 29.2607 958.682C34.1595 1000.84 80.5266 1030.08 132.825 1024Z" fill="white"/>
<path d="M98.131 1023.75H97.9588C96.8144 1023.7 95.7355 1023.2 94.9585 1022.36C94.1815 1021.51 93.7689 1020.4 93.811 1019.25L95.9372 968.443C95.9595 967.877 96.0931 967.32 96.3313 966.805C96.5694 966.29 96.9068 965.828 97.3243 965.444C97.7419 965.06 98.2308 964.762 98.7638 964.568C99.2967 964.374 99.8627 964.287 100.429 964.313C100.996 964.335 101.553 964.469 102.068 964.707C102.583 964.945 103.045 965.283 103.429 965.701C103.813 966.118 104.11 966.607 104.304 967.14C104.498 967.673 104.585 968.24 104.559 968.806L102.451 1019.6C102.402 1020.71 101.926 1021.77 101.122 1022.54C100.318 1023.31 99.2461 1023.75 98.131 1023.75Z" fill="#FF3807"/>
<path d="M140.622 1023.75H140.432C139.865 1023.73 139.308 1023.59 138.794 1023.35C138.279 1023.12 137.816 1022.78 137.433 1022.36C137.049 1021.94 136.751 1021.45 136.557 1020.92C136.363 1020.39 136.276 1019.82 136.302 1019.25L138.41 968.443C138.432 967.877 138.566 967.32 138.804 966.805C139.043 966.29 139.38 965.828 139.798 965.444C140.215 965.06 140.704 964.762 141.237 964.568C141.77 964.374 142.336 964.287 142.902 964.313C143.469 964.335 144.026 964.469 144.541 964.707C145.056 964.945 145.518 965.283 145.902 965.701C146.286 966.118 146.583 966.607 146.777 967.14C146.971 967.673 147.058 968.24 147.033 968.806L144.924 1019.62C144.879 1020.73 144.407 1021.78 143.604 1022.55C142.802 1023.32 141.734 1023.75 140.622 1023.75Z" fill="#FF3807"/>
<path d="M118.832 1028C71.1058 1028 30.9652 999.276 26.3516 959.594C23.8979 938.423 31.7771 917.355 48.5383 900.297C65.2996 883.239 88.5755 872.403 114.443 869.395C168.01 863.156 215.822 893.471 220.885 936.971C223.339 958.16 215.459 979.211 198.698 996.286C181.937 1013.36 158.661 1024.16 132.793 1027.19C128.158 1027.72 123.498 1027.99 118.832 1028ZM128.439 873.768C123.964 873.772 119.493 874.031 115.047 874.546C90.3373 877.415 68.03 887.853 52.2364 903.926C36.4428 919.999 29.22 939.408 31.5009 959.007C35.8035 996.044 73.6977 1022.82 118.798 1022.82C123.273 1022.81 127.744 1022.55 132.189 1022.04C156.899 1019.15 179.206 1008.73 195 992.657C210.794 976.584 218.017 957.175 215.736 937.593C211.433 900.522 173.539 873.768 128.439 873.768Z" fill="black"/>
<path d="M276.491 715.837L266.867 698.917C236.109 714.04 215.477 699.125 195.588 669.174L178.637 678.956C202.777 720.763 239.565 737.164 276.491 715.837Z" fill="#FF3807"/>
<path d="M213.541 796.22L156 829.455L163.206 841.95L219.417 809.493C227.279 829.455 226.018 840.896 209.948 849.244C204.785 851.978 198.806 852.75 193.118 851.419C187.429 850.088 182.415 846.743 179 842.002L167.301 848.569C173.66 862.638 195.951 874.062 217.05 861.895C243.937 846.34 244.835 817.703 227.676 787.976L225.62 789.168L213.541 796.22Z" fill="#FF3807"/>
<path d="M340.322 828.452L282.781 861.687L289.987 874.183L346.197 841.726C354.059 861.687 352.798 873.128 336.728 881.476C331.563 884.215 325.581 884.99 319.889 883.659C314.196 882.328 309.178 878.98 305.763 874.235L294.082 880.785C300.441 894.853 322.731 906.294 343.813 894.11C370.717 878.555 371.616 849.935 354.457 820.208L352.383 821.401L340.322 828.452Z" fill="#FF3807"/>
<path d="M213.87 900.435L221.386 913.449L252.092 896.046C256.706 913.899 251.885 929.505 231.081 943.055L238.407 955.516C272.189 935.986 278.859 904.22 260.974 873.232L246.632 881.511L213.87 900.435Z" fill="#FF3807"/>
<path d="M119.367 745.927L111.921 750.213L122.288 768.239L136.682 759.943C155.793 771.211 177.755 771.764 199.891 758.975L190.474 742.436C178.378 748.433 167.837 749.781 158.403 747.396L177.117 736.577L166.749 718.551L137.771 735.298C135.122 732.792 132.624 730.132 130.289 727.331L165.953 706.747L156.035 689.585L93.9836 725.412L103.903 742.574L112.318 737.701C114.523 740.564 116.876 743.309 119.367 745.927Z" fill="#FF3807"/>
<path d="M300.994 745.979C315.008 775.221 317.271 789.186 297.417 799.556C278.409 811.55 266.314 803.324 247.928 776.553L233.413 784.934C251.038 815.473 276.976 829.386 304.588 813.434C332.201 797.482 333.151 768.067 315.509 737.528L300.994 745.979Z" fill="#FF3807"/>
<path d="M288.816 757.99L274.07 759.364L277.454 795.708L292.199 794.334L288.816 757.99Z" fill="#FF3807"/>
</svg>
