<svg width="250" height="35" viewBox="0 0 250 35" fill="none" xmlns="http://www.w3.org/2000/svg">
<g clip-path="url(#clip0_87_385)">
<path d="M1.71729 34.2929H16.3534V26.9103L1.71729 27.7298V34.2929Z" fill="#02111B"/>
<path d="M34.8838 34.2928H65.9714V24.6279H57.0942L34.8838 25.8722V34.2928Z" fill="#02111B"/>
<path d="M89.2235 25.8072C86.7954 25.8072 85.1142 24.9213 84.1643 23.1122L68.8755 23.9679C71.0401 31.3963 77.7442 35.0001 89.2235 35.0001C101.834 35.0001 108.682 30.6553 110.079 21.6603L94.5522 22.5304C93.6663 24.7318 91.8981 25.8072 89.2235 25.8072Z" fill="#02111B"/>
<path d="M129.588 23.8737H129.093C129.03 22.7742 128.929 21.6747 128.805 20.615L115.356 21.3621L118.352 34.2904H136.788L138.964 24.3938C139.182 23.4187 139.454 21.904 139.726 20.0007L130.166 20.5354C129.958 21.6228 129.764 22.7476 129.588 23.8737Z" fill="#02111B"/>
<path d="M152.462 23.8736H151.921C151.753 22.3047 151.536 20.7828 151.279 19.3526L141.209 19.9138C141.497 21.8569 141.783 23.4005 142.005 24.3902L144.181 34.2867H162.83L166.335 18.5029L153.009 19.256C152.807 20.7128 152.619 22.2709 152.462 23.8736Z" fill="#02111B"/>
<path d="M190.16 22.6475C190.16 24.8404 188.98 26.0425 186.897 26.0425C184.229 26.0425 183.214 23.9208 183.12 18.7347L168.508 20.527C168.254 30.922 174.039 35.0001 186.903 35.0001C198.942 35.0001 204.79 31.3939 204.79 23.4018V16.3547L190.154 17.1742L190.16 22.6475Z" fill="#02111B"/>
<path d="M234.892 16.8797V17.4686C234.892 22.6076 232.933 25.0829 228.874 25.0829C224.814 25.0829 222.854 22.6076 222.854 17.4686V16.8797C222.849 16.1214 222.897 15.3637 222.996 14.6119L207.797 15.4628C207.763 16.0067 207.746 16.5655 207.746 17.1391V17.2333C207.746 28.7362 214.635 34.2759 228.874 34.2759C243.112 34.2759 250 28.7362 250 17.2333V17.1379C250.006 15.7907 249.901 14.4453 249.686 13.1154L234.64 13.9602C234.817 14.923 234.902 15.9007 234.892 16.8797V16.8797Z" fill="#02111B"/>
<path d="M14.751 22.7488L29.2215 22.668L29.1768 14.6542L14.7062 14.7338L14.6833 10.6087L31.0888 10.5181L31.0405 1.7959L0 1.96848L0.126903 24.6931L14.757 23.8037L14.751 22.7488Z" fill="#02111B"/>
<path d="M47.8 1.703L33.165 1.78507L33.2811 22.6777L47.9124 21.7882L47.8 1.703Z" fill="#02111B"/>
<path d="M81.5806 18.4173V17.8283C81.5468 12.5518 83.4914 9.99197 87.5511 9.96904C91.6108 9.94611 93.5845 12.4818 93.6147 17.7608V18.3509C93.6147 18.5766 93.6147 18.7951 93.6062 19.0099L108.721 18.0915V17.937C108.653 6.29283 101.734 0.696452 87.5028 0.776107C73.2715 0.855762 66.4055 6.52697 66.4732 18.1711V18.2652C66.478 19.0924 66.5183 19.8881 66.594 20.6525L81.6374 19.7377C81.6 19.3189 81.5806 18.8796 81.5806 18.4173Z" fill="#02111B"/>
<path d="M138.573 15.9565H139.069C139.081 16.0542 139.092 16.1508 139.104 16.2473L148.857 15.6548L144.935 1.172L132.896 1.23838L129.512 15.8491C129.437 16.1689 129.361 16.5032 129.285 16.8484L138.545 16.2848L138.573 15.9565Z" fill="#02111B"/>
<path d="M168.446 1.0332L154.118 1.11286L151.897 15.4665L165.499 14.6385L168.446 1.0332Z" fill="#02111B"/>
<path d="M126.463 15.8586L123.715 1.28174L108.984 1.36381L112.899 17.8367L126.661 17.0004C126.599 16.6045 126.531 16.2219 126.463 15.8586Z" fill="#02111B"/>
<path d="M203.075 0.841309L188.44 0.923378L188.508 13.2398L203.139 12.3503L203.075 0.841309Z" fill="#02111B"/>
<path d="M227.199 9.19422C228.968 9.18456 230.341 9.66008 231.328 10.6365L247.076 9.67818C244.467 3.11387 237.89 -0.0590589 227.148 7.90019e-05C215.254 0.0652514 208.509 4.03836 206.65 12.1354L222.67 11.1615C223.66 9.85318 225.162 9.20508 227.199 9.19422Z" fill="#02111B"/>
</g>
<defs>
<clipPath id="clip0_87_385">
<rect width="250" height="35" fill="white"/>
</clipPath>
</defs>
</svg>
