<svg width="838" height="812" viewBox="0 0 838 812" fill="none" xmlns="http://www.w3.org/2000/svg">
<path d="M407.353 805.961C627.245 805.961 805.503 627.704 805.503 407.812C805.503 187.92 627.245 9.66187 407.353 9.66187C187.461 9.66187 9.20364 187.92 9.20364 407.812C9.20364 627.704 187.461 805.961 407.353 805.961Z" fill="#FEC700"/>
<path d="M407.354 812C184.47 812 3.14069 630.671 3.14069 407.787C3.14069 184.903 184.47 3.5741 407.354 3.5741C630.238 3.5741 811.567 184.903 811.567 407.787C811.567 630.671 630.114 812 407.354 812ZM407.354 15.7251C191.149 15.7251 15.2669 191.607 15.2669 407.812C15.2669 624.016 191.149 799.873 407.354 799.873C623.558 799.873 799.415 623.992 799.415 407.812C799.415 191.632 623.534 15.7251 407.354 15.7251Z" fill="#F54100"/>
<path d="M407.353 749.741C596.196 749.741 749.283 596.654 749.283 407.812C749.283 218.969 596.196 65.8821 407.353 65.8821C218.511 65.8821 65.4237 218.969 65.4237 407.812C65.4237 596.654 218.511 749.741 407.353 749.741Z" fill="#FEC700"/>
<path d="M407.354 755.805C215.451 755.805 59.3357 599.69 59.3357 407.812C59.3357 215.934 215.451 59.7941 407.354 59.7941C599.256 59.7941 755.346 215.909 755.346 407.812C755.346 599.714 599.232 755.805 407.354 755.805ZM407.354 71.9451C222.155 71.9451 71.4871 222.613 71.4871 407.812C71.4871 593.01 222.155 743.653 407.354 743.653C592.552 743.653 743.195 592.985 743.195 407.812C743.195 222.638 592.527 71.9451 407.354 71.9451Z" fill="#F54100"/>
<path d="M373.094 531.22C430.054 535.311 452.112 566.909 452.112 610.954C452.112 654.998 432.395 684.624 374.795 690.662C317.195 696.701 242.858 654.973 242.858 610.954C242.858 566.934 314.631 527.005 373.094 531.22Z" fill="#FEC700"/>
<path d="M458.274 610.954C458.274 662.86 431.162 690.933 375.435 696.799C337.873 700.743 291.291 685.191 262.182 658.966C245.496 643.956 236.696 627.344 236.696 610.954C236.696 594.563 244.929 578.715 260.555 564.124C288.283 538.318 334.743 522.224 373.537 525.034C428.969 529.051 458.274 558.751 458.274 610.954ZM249.02 610.954C249.02 627.122 260.654 640.998 270.414 649.797C297.132 673.878 339.795 688.148 374.153 684.55C423.817 679.325 445.95 656.625 445.95 610.954C445.95 565.282 421.304 540.857 372.65 537.357C337.011 534.892 294.371 549.533 268.935 573.194C259.84 581.673 249.02 595.081 249.02 610.954Z" fill="#F54100"/>
<path d="M365.971 662.367C394.366 662.367 417.385 639.348 417.385 610.953C417.385 582.558 394.366 559.539 365.971 559.539C337.576 559.539 314.557 582.558 314.557 610.953C314.557 639.348 337.576 662.367 365.971 662.367Z" fill="#FEC700"/>
<path d="M423.547 610.953C423.547 622.341 420.17 633.472 413.843 642.941C407.517 652.409 398.525 659.789 388.005 664.146C377.484 668.504 365.907 669.644 354.738 667.423C343.57 665.201 333.311 659.718 325.259 651.665C317.207 643.613 311.724 633.354 309.502 622.186C307.281 611.017 308.42 599.441 312.778 588.92C317.136 578.399 324.516 569.407 333.984 563.081C343.453 556.754 354.584 553.378 365.971 553.378C381.235 553.397 395.869 559.47 406.662 570.263C417.455 581.056 423.527 595.689 423.547 610.953ZM320.72 610.953C320.72 619.903 323.374 628.652 328.346 636.094C333.318 643.536 340.385 649.336 348.653 652.761C356.922 656.186 366.021 657.082 374.799 655.336C383.577 653.59 391.641 649.28 397.969 642.951C404.298 636.623 408.608 628.56 410.354 619.782C412.1 611.003 411.204 601.905 407.779 593.636C404.354 585.367 398.554 578.3 391.112 573.327C383.67 568.355 374.921 565.701 365.971 565.701C353.976 565.721 342.477 570.495 333.995 578.977C325.513 587.459 320.739 598.958 320.72 610.953Z" fill="#F54100"/>
<path d="M288.652 231.166C278.793 238.56 270.265 229.145 261.294 235.356C252.322 241.567 254.294 251.204 243.474 252.609C229.179 254.531 231.619 245.067 220.725 244.82C209.831 244.574 205.32 254.112 195.043 250.514C184.765 246.915 190.113 235.085 181.536 228.479C172.959 221.874 164.135 226.015 159.083 216.451C153.759 206.272 162.46 202.082 159.33 191.632C156.199 181.182 147.449 177.238 149.667 166.566C151.737 156.707 163.839 159.172 166.132 148.524C168.424 137.876 163.395 131.863 171.184 124.247C179.441 116.162 185.627 125.479 194.599 119.317C203.57 113.155 201.303 103.149 211.851 100.018C222.4 96.8883 225.457 109.089 236.228 110.715C246.999 112.342 252.544 100.142 262.822 103.74C273.1 107.339 264.4 118.972 273.076 125.602C281.752 132.232 290.205 124.099 298.462 134.007C305.437 142.387 295.554 149.633 298.659 160.083C301.765 170.534 311.87 166.122 311.18 179.801C310.441 194.121 300.409 190.227 296.811 200.53C293.212 210.832 297.377 224.684 288.652 231.166Z" fill="#FEC700"/>
<path d="M239.951 257.957C237.495 258.037 235.047 257.608 232.765 256.696C230.483 255.784 228.414 254.409 226.69 252.658C225.931 251.791 224.995 251.098 223.945 250.626C222.894 250.154 221.754 249.914 220.603 249.923C217.234 250.032 213.956 251.045 211.113 252.855C206.628 255.172 201.082 258.031 193.343 255.32C185.234 252.461 183.681 245.806 182.548 240.926C181.636 236.958 180.945 234.419 178.48 232.546C175.825 230.714 172.794 229.501 169.608 228.997C164.678 227.863 158.59 226.532 154.597 218.867C153.215 216.281 152.428 213.419 152.291 210.49C152.155 207.561 152.673 204.638 153.809 201.934C155.031 199.173 155.274 196.078 154.498 193.16C153.428 190.024 151.864 187.078 149.865 184.435C146.636 179.505 142.939 174.182 144.738 165.604C146.217 158.506 151.393 155.746 155.189 153.626C158.985 151.506 160.537 150.595 161.203 147.563C161.743 144.621 161.893 141.621 161.647 138.641C161.4 133.218 161.104 127.106 167.635 120.722C173.773 114.733 179.639 115.596 183.928 116.236C187.428 116.779 189.226 116.951 191.716 115.226C194.325 113.205 196.337 110.513 197.533 107.437C199.727 103.05 202.462 97.5785 210.3 95.1137C218.729 92.649 224.25 97.258 228.268 100.659C230.607 103.087 233.592 104.797 236.87 105.589C240.049 106.057 242.588 104.677 246.433 102.36C251.042 99.5995 256.759 96.1736 264.375 98.8602C272.953 101.867 273.273 109.039 273.47 113.648C273.643 117.567 273.84 119.687 275.935 121.338C278.03 122.99 280.569 123.31 284.438 123.261C289.368 123.261 296.072 123.261 302.136 130.655C307.706 137.359 305.708 144.014 304.23 148.869C302.956 151.906 302.63 155.256 303.293 158.482C303.639 159.606 304.216 160.646 304.989 161.533C305.762 162.421 306.713 163.136 307.78 163.633C311.477 166.097 316.529 169.277 315.986 179.826C315.444 190.375 310.195 193.973 306.35 196.512C304.076 197.649 302.315 199.603 301.421 201.984C300.407 205.611 299.883 209.358 299.867 213.124C299.473 220.839 298.981 229.589 291.611 235.036C284.784 239.965 278.449 239.127 273.347 238.388C269.059 237.771 266.692 237.525 264.129 239.299C261.625 241.201 259.628 243.69 258.312 246.546C255.848 250.883 252.816 256.405 244.14 257.489C242.755 257.734 241.356 257.89 239.951 257.957ZM220.233 239.842H220.775C223.097 239.855 225.394 240.325 227.533 241.226C229.673 242.126 231.614 243.44 233.246 245.091C235.711 247.186 237.067 248.444 242.736 247.68C246.285 247.187 247.246 245.782 249.488 241.764C251.536 237.567 254.583 233.936 258.362 231.19C264.302 227.074 270.093 227.912 274.752 228.726C279.41 229.539 282.147 229.662 285.597 227.198C288.925 224.733 289.392 220.149 289.787 212.853C289.815 208.127 290.521 203.429 291.882 198.903C293.504 194.427 296.691 190.688 300.854 188.378C304.083 186.259 305.783 185.199 305.981 179.58C306.227 174.847 305.241 174.206 302.357 172.358C300.275 171.231 298.436 169.704 296.947 167.864C295.458 166.024 294.349 163.907 293.681 161.636C292.385 156.535 292.722 151.156 294.643 146.257C296.072 141.327 296.367 139.7 294.42 137.359C291.462 133.81 288.9 133.711 284.784 133.711H284.192C279.087 134.13 274.002 132.714 269.848 129.718C263.858 125.134 263.562 118.726 263.39 114.486C263.168 109.705 262.897 109.286 260.925 108.62C257.918 107.56 255.626 108.793 251.51 111.258C247.394 113.722 242.168 116.853 235.267 115.793C230.11 114.771 225.369 112.25 221.638 108.546C217.596 105.121 216.042 104.085 213.085 104.973C209.56 106.008 208.501 107.881 206.431 112.022C204.522 116.639 201.375 120.64 197.336 123.581C195.163 125.049 192.708 126.048 190.128 126.515C187.548 126.982 184.899 126.906 182.35 126.292C178.776 125.75 177.125 125.504 174.587 128.018C171.259 131.246 171.357 133.44 171.579 138.271C171.884 142.111 171.669 145.974 170.939 149.756C169.288 157.446 163.841 160.404 159.897 162.548C155.954 164.693 154.967 165.432 154.474 167.749C153.587 171.988 155.042 174.354 158.098 178.889C160.682 182.374 162.687 186.252 164.037 190.375C165.452 195.248 165.192 200.455 163.298 205.163C162.164 208.811 161.523 210.807 163.421 214.406C165.319 218.004 167.118 218.349 171.751 219.335C176.34 220.135 180.689 221.963 184.47 224.684C189.941 228.874 191.223 234.37 192.258 238.782C193.392 243.711 193.959 245.067 196.572 245.979C200.072 247.211 202.241 246.225 206.431 244.056C210.623 241.496 215.398 240.046 220.307 239.842H220.233Z" fill="#F54100"/>
<path d="M237.855 161.217C235.394 159.462 232.421 158.568 229.4 158.675C226.378 158.782 223.476 159.884 221.144 161.809C214.391 166.984 211.877 185.544 231.496 188.353C255.355 191.755 262.872 172.358 262.527 162.523C262.157 152.221 255.577 139.38 230.313 138.542C205.05 137.704 185.505 155.943 185.948 176.72C186.392 197.498 205.888 213.937 227.849 213.937C252.668 213.937 272.657 193.825 274.53 174.255" fill="#FEC700"/>
<path d="M227.774 218.966C202.486 218.966 181.462 200.061 180.945 176.819C180.878 171.35 181.938 165.926 184.058 160.884C186.178 155.843 189.313 151.291 193.268 147.514C198.207 142.784 204.055 139.107 210.456 136.705C216.858 134.303 223.681 133.226 230.511 133.539C238.965 133.81 266.693 136.718 267.482 162.351C267.539 166.858 266.651 171.326 264.876 175.469C263.102 179.612 260.48 183.338 257.179 186.407C252.496 190.621 244.067 195.255 230.708 193.332C220.85 191.903 213.873 186.481 211.754 178.544C210.786 174.861 210.856 170.982 211.957 167.337C213.058 163.692 215.146 160.422 217.99 157.89C221.21 155.283 225.201 153.815 229.342 153.712C233.484 153.61 237.543 154.879 240.887 157.323C241.943 158.137 242.632 159.337 242.803 160.659C242.974 161.981 242.613 163.316 241.8 164.372C240.986 165.428 239.786 166.117 238.464 166.288C237.142 166.459 235.805 166.098 234.75 165.284C233.169 164.177 231.263 163.633 229.336 163.741C227.41 163.848 225.574 164.6 224.127 165.876C222.854 167.19 221.943 168.811 221.481 170.582C221.019 172.352 221.022 174.212 221.49 175.981C222.821 181.083 228.021 182.858 232.137 183.375C239.802 184.46 245.964 182.956 250.45 178.914C252.661 176.832 254.42 174.319 255.62 171.529C256.82 168.739 257.435 165.733 257.425 162.696C257.13 154.39 252.151 144.309 230.067 143.57C224.604 143.306 219.145 144.153 214.019 146.06C208.893 147.966 204.207 150.892 200.244 154.661C197.268 157.482 194.906 160.886 193.303 164.66C191.7 168.434 190.892 172.497 190.928 176.597C191.322 194.121 208.18 208.91 227.701 208.91C250.278 208.91 267.778 190.4 269.38 173.763C269.507 172.433 270.158 171.207 271.188 170.357C272.219 169.506 273.546 169.1 274.876 169.228C276.206 169.355 277.431 170.006 278.282 171.036C279.132 172.067 279.538 173.394 279.411 174.724C277.414 196.167 256.143 218.966 227.774 218.966Z" fill="#F54100"/>
<path d="M455.465 149.337C445.606 156.732 437.078 147.316 428.106 153.527C419.135 159.739 421.106 169.4 410.311 170.78C395.991 172.703 398.456 163.238 387.561 162.992C376.667 162.745 372.158 172.284 361.855 168.685C351.553 165.087 356.925 153.256 348.373 146.651C339.82 140.045 330.972 144.186 325.894 134.623C320.571 124.444 329.296 120.254 326.166 109.803C323.036 99.3531 314.261 95.4094 316.504 84.7372C318.549 74.8783 330.677 77.3431 332.944 66.7201C335.212 56.0972 330.208 50.0341 337.874 42.4181C346.13 34.3339 352.341 43.6505 361.313 37.4887C370.284 31.3269 368.017 21.2956 378.566 18.1654C389.114 15.0352 392.146 27.2355 402.942 28.8622C413.737 30.4889 419.233 18.2885 429.511 21.887C439.789 25.4855 431.089 37.1189 439.765 43.749C448.44 50.3791 456.894 42.2456 465.151 52.1784C472.126 60.5338 462.243 67.7801 465.373 78.2305C468.503 88.6808 478.559 84.2937 477.869 97.9482C477.129 112.268 467.123 108.398 463.499 118.676C459.876 128.954 464.239 142.954 455.465 149.337Z" fill="#FEC700"/>
<path d="M406.786 176.227C404.327 176.304 401.878 175.872 399.592 174.961C397.306 174.049 395.233 172.676 393.501 170.928C392.747 170.063 391.815 169.371 390.768 168.899C389.722 168.427 388.586 168.186 387.438 168.192C384.07 168.306 380.793 169.318 377.949 171.125C373.488 173.442 367.918 176.301 360.204 173.59C352.07 170.756 350.541 164.076 349.407 159.196C348.471 155.228 347.781 152.689 345.317 150.816C342.664 148.981 339.63 147.767 336.443 147.267C331.514 146.133 325.426 144.802 321.458 137.137C320.061 134.556 319.264 131.694 319.123 128.763C318.982 125.832 319.502 122.907 320.644 120.204C321.868 117.444 322.113 114.348 321.335 111.43C320.273 108.295 318.717 105.349 316.726 102.705C313.472 97.7755 309.799 92.4517 311.574 83.8745C313.052 76.7761 318.254 74.0157 322.025 71.896C325.796 69.7764 327.398 68.8644 328.038 65.8328C328.591 62.8927 328.741 59.891 328.482 56.9105C328.236 51.5128 327.965 45.3756 334.496 38.992C340.633 33.0028 346.499 33.8654 350.788 34.5062C354.263 35.0485 356.063 35.2211 358.577 33.4958C361.18 31.4748 363.183 28.782 364.369 25.7073C366.562 21.3201 369.297 15.8485 377.135 13.3838C385.589 10.9191 391.086 15.5281 395.103 18.9294C397.437 21.3651 400.424 23.0766 403.706 23.8588C406.91 24.3271 409.423 22.9469 413.268 20.63C417.877 17.8695 423.595 14.4681 431.211 17.13C439.813 20.1616 440.109 27.3093 440.331 32.0415C440.503 35.9604 440.676 38.0802 442.796 39.7316C444.915 41.3829 447.43 41.7032 451.299 41.654C456.229 41.654 462.932 41.654 468.995 49.0481C474.565 55.7521 472.57 62.4069 471.116 67.2624C469.823 70.2937 469.487 73.6474 470.154 76.8746C470.5 78.0031 471.08 79.0457 471.857 79.9336C472.634 80.8215 473.592 81.5346 474.665 82.026C478.362 84.4907 483.413 87.6702 482.871 98.2191C482.329 108.768 477.055 112.391 473.21 114.905C470.932 116.038 469.17 117.994 468.28 120.377C467.254 124.002 466.732 127.75 466.728 131.517C466.309 139.232 465.841 147.982 458.447 153.429C451.644 158.358 445.285 157.52 440.183 156.781C435.894 156.165 433.529 155.943 430.965 157.693C428.468 159.601 426.471 162.088 425.148 164.939C422.683 169.277 419.676 174.798 410.976 175.882C409.588 176.087 408.189 176.202 406.786 176.227ZM387.069 158.136H387.61C389.932 158.149 392.229 158.62 394.369 159.52C396.509 160.421 398.45 161.735 400.082 163.386C402.547 165.481 403.902 166.738 409.595 165.851C413.12 165.358 414.082 163.953 416.349 159.936C418.379 155.734 421.419 152.101 425.197 149.362C431.137 145.246 436.929 146.084 441.587 146.897C446.246 147.711 449.106 147.834 452.433 145.394C455.76 142.929 456.228 138.32 456.622 131.024C456.659 126.297 457.374 121.599 458.743 117.074C460.359 112.602 463.536 108.864 467.689 106.55C470.918 104.43 472.619 103.37 472.816 97.7508C473.063 93.0186 472.102 92.3778 469.218 90.5293C467.13 89.4075 465.285 87.882 463.791 86.0415C462.298 84.201 461.185 82.0819 460.517 79.8077C459.233 74.7056 459.569 69.3303 461.478 64.4279C462.932 59.6217 463.229 57.8718 461.257 55.5303C458.299 51.9811 455.76 51.9071 451.619 51.9071H451.027C445.921 52.3099 440.838 50.8863 436.683 47.8897C430.694 43.3054 430.422 36.897 430.225 32.6577C430.028 27.8761 429.732 27.4573 427.761 26.7918C424.729 25.732 422.437 26.9642 418.321 29.4289C414.204 31.8936 409.004 35.0239 402.078 33.9887C396.912 32.9239 392.177 30.3507 388.473 26.5946C384.406 23.1686 382.854 22.1334 379.896 23.0207C376.371 24.0559 375.312 25.9291 373.266 30.0698C371.337 34.6752 368.194 38.6704 364.171 41.6293C361.997 43.1032 359.538 44.1058 356.953 44.5727C354.368 45.0396 351.713 44.9606 349.161 44.3406C345.587 43.7983 343.96 43.5764 341.397 46.0657C338.094 49.2945 338.193 51.4882 338.415 56.319C338.722 60.1599 338.498 64.0248 337.749 67.8045C336.098 75.4944 330.676 78.4521 326.707 80.6211C322.739 82.79 321.779 83.4801 321.286 85.7969C320.423 90.0362 321.853 92.4024 324.933 96.9374C327.505 100.426 329.501 104.304 330.848 108.423C332.235 113.258 331.975 118.417 330.108 123.088C328.975 126.736 328.334 128.732 330.232 132.331C332.13 135.929 333.954 136.274 338.588 137.26C343.174 138.068 347.52 139.896 351.305 142.609C356.752 146.799 358.034 152.295 359.069 156.731C360.202 161.661 360.795 162.992 363.407 163.904C366.882 165.136 369.051 164.15 373.266 161.981C377.486 159.555 382.251 158.232 387.118 158.136H387.069Z" fill="#F54100"/>
<path d="M404.692 79.4873C402.225 77.734 399.249 76.842 396.224 76.9489C393.199 77.0558 390.293 78.1558 387.956 80.079C381.228 85.2795 378.689 103.814 398.309 106.624C422.167 110.025 429.684 90.6279 429.339 80.7937C428.994 70.4912 422.389 57.6746 397.126 56.8366C371.862 55.9986 352.317 74.0897 352.761 94.9905C353.204 115.891 372.7 132.232 394.661 132.232C419.48 132.232 439.444 112.096 441.342 92.5257" fill="#FEC700"/>
<path d="M394.612 137.26C369.299 137.26 348.3 118.331 347.900 95.0889C347.717 89.6202 348.777 84.1965 350.897 79.155C353.017 74.1136 356.152 69.562 360.106 65.7834C365.039 61.0549 370.882 57.378 377.279 54.9758C383.677 52.5735 390.495 51.496 397.322 51.8085C405.801 52.0796 433.504 54.988 434.293 80.621C434.365 85.1299 433.485 89.6032 431.71 93.7485C429.935 97.8938 427.304 101.618 423.991 104.677C419.308 108.891 410.903 113.525 397.545 111.602C387.686 110.173 380.686 104.775 378.591 96.8142C377.608 93.1359 377.67 89.2563 378.772 85.6117C379.873 81.9671 381.97 78.7023 384.826 76.1846C388.038 73.5726 392.024 72.0979 396.162 71.9909C400.3 71.8839 404.356 73.1506 407.698 75.5931C408.754 76.4036 409.444 77.6003 409.618 78.9199C409.791 80.2396 409.433 81.5741 408.623 82.6298C407.812 83.6855 406.616 84.376 405.296 84.5493C403.976 84.7226 402.641 84.3646 401.586 83.554C400.005 82.4468 398.099 81.9032 396.173 82.0104C394.246 82.1177 392.412 82.8697 390.964 84.1455C389.683 85.455 388.764 87.075 388.297 88.8465C387.83 90.618 387.832 92.4803 388.302 94.251C389.657 99.3529 394.833 101.128 398.949 101.645C406.639 102.73 412.776 101.226 417.262 97.184C419.47 95.105 421.228 92.5953 422.428 89.8102C423.627 87.025 424.244 84.0234 424.238 80.9908C423.966 72.6601 418.987 62.5794 396.903 61.8646C391.441 61.5862 385.98 62.4239 380.852 64.3266C375.725 66.2293 371.038 69.1571 367.08 72.9311C364.101 75.7511 361.736 79.1539 360.129 82.9276C358.522 86.7014 357.709 90.7656 357.74 94.8671C358.134 112.391 374.992 127.179 394.537 127.179C417.089 127.179 434.614 108.669 436.216 92.0327C436.279 91.3756 436.47 90.7374 436.78 90.1545C437.09 89.5716 437.512 89.0555 438.021 88.6356C438.53 88.2156 439.117 87.8999 439.748 87.7068C440.379 87.5136 441.043 87.4467 441.7 87.5099C442.357 87.573 442.995 87.765 443.577 88.0747C444.16 88.3845 444.676 88.806 445.096 89.3152C445.516 89.8245 445.832 90.4115 446.025 91.0427C446.218 91.6738 446.286 92.3369 446.223 92.9939C444.226 114.363 423.079 137.26 394.612 137.26Z" fill="#F54100"/>
<path d="M555.857 469.302L515.698 483.705L599.386 717.053L639.546 702.65L555.857 469.302Z" fill="#FEC700"/>
<path d="M641.723 708.951L601.572 723.344C600.81 723.619 600.002 723.74 599.193 723.701C598.384 723.662 597.59 723.464 596.857 723.119C596.125 722.773 595.468 722.287 594.923 721.687C594.379 721.087 593.959 720.385 593.686 719.623L510.009 486.264C509.735 485.503 509.613 484.696 509.652 483.889C509.691 483.081 509.89 482.29 510.236 481.559C510.582 480.829 511.069 480.173 511.668 479.632C512.268 479.09 512.968 478.672 513.73 478.401L553.88 463.983C555.42 463.436 557.114 463.52 558.592 464.217C560.069 464.915 561.211 466.168 561.768 467.704L645.445 701.063C645.719 701.826 645.84 702.634 645.801 703.444C645.763 704.253 645.564 705.046 645.219 705.779C644.873 706.511 644.387 707.168 643.787 707.713C643.187 708.257 642.485 708.678 641.723 708.951ZM603.2 709.665L631.765 699.412L552.254 477.588L523.687 487.841L603.2 709.665Z" fill="#F54100"/>
<path d="M624.064 444.833L583.905 459.236L667.593 692.583L707.753 678.18L624.064 444.833Z" fill="#FEC700"/>
<path d="M709.946 684.476L669.771 698.894C668.231 699.441 666.538 699.357 665.06 698.659C663.583 697.962 662.441 696.709 661.884 695.172L578.084 461.814C577.81 461.051 577.688 460.242 577.727 459.433C577.765 458.624 577.964 457.831 578.309 457.098C578.655 456.366 579.141 455.709 579.741 455.164C580.341 454.62 581.043 454.199 581.805 453.926L621.981 439.532C622.741 439.259 623.548 439.138 624.355 439.177C625.163 439.216 625.955 439.414 626.685 439.76C627.416 440.106 628.07 440.592 628.612 441.192C629.154 441.792 629.573 442.492 629.843 443.254L713.643 676.589C714.192 678.125 714.111 679.816 713.418 681.293C712.726 682.77 711.478 683.914 709.946 684.476ZM671.398 685.215L699.989 674.962L620.452 453.138L591.887 463.391L671.398 685.215Z" fill="#F54100"/>
<path d="M692.256 420.361L652.096 434.764L735.784 668.111L775.944 653.708L692.256 420.361Z" fill="#FEC700"/>
<path d="M778.144 660.026L737.969 674.42C737.207 674.694 736.399 674.815 735.589 674.776C734.78 674.738 733.986 674.54 733.254 674.194C732.521 673.849 731.864 673.362 731.32 672.762C730.775 672.162 730.355 671.461 730.082 670.698L646.282 437.364C645.735 435.824 645.82 434.131 646.517 432.653C647.214 431.175 648.467 430.033 650.003 429.477L690.179 415.058C691.718 414.511 693.412 414.596 694.889 415.293C696.367 415.99 697.508 417.243 698.065 418.78L781.743 652.139C782.296 653.663 782.229 655.343 781.556 656.818C780.883 658.293 779.658 659.445 778.144 660.026ZM739.621 660.741L768.187 650.512L688.65 428.688L660.085 438.916L739.621 660.741Z" fill="#F54100"/>
<path d="M615.548 375.08L485.608 243.834L462.908 220.888L679.137 6.87671L831.752 161.094L615.548 375.08Z" fill="#FEC700"/>
<path d="M611.161 379.418L458.546 225.226C457.972 224.654 457.517 223.974 457.206 223.225C456.896 222.476 456.736 221.674 456.736 220.863C456.736 220.053 456.896 219.251 457.206 218.502C457.517 217.753 457.972 217.073 458.546 216.501L674.75 2.48979C675.909 1.33689 677.477 0.689697 679.112 0.689697C680.747 0.689697 682.316 1.33689 683.475 2.48979L836.09 156.682C837.243 157.841 837.89 159.41 837.89 161.045C837.89 162.68 837.243 164.248 836.09 165.407L619.886 379.418C618.727 380.571 617.158 381.218 615.523 381.218C613.888 381.218 612.32 380.571 611.161 379.418ZM471.634 220.814L615.597 366.232L823.051 160.897L679.088 15.4789L471.634 220.814Z" fill="#F54100"/>
<path d="M481.246 248.148C480.096 246.997 479.45 245.436 479.45 243.81C479.45 242.183 480.096 240.622 481.246 239.472L524.131 196.167C525.291 195.014 526.859 194.367 528.494 194.367C530.129 194.367 531.697 195.014 532.857 196.167C533.995 197.324 534.632 198.882 534.632 200.505C534.632 202.128 533.995 203.686 532.857 204.843L489.971 248.197C488.816 249.348 487.251 249.995 485.62 249.995C483.989 249.995 482.425 249.348 481.27 248.197L481.246 248.148Z" fill="#F54100"/>
<path d="M548.482 180.689C547.909 180.116 547.454 179.436 547.143 178.688C546.832 177.939 546.672 177.137 546.672 176.326C546.672 175.516 546.832 174.713 547.143 173.965C547.454 173.216 547.909 172.536 548.482 171.964L697.007 24.9681C697.578 24.3825 698.259 23.9165 699.012 23.5971C699.765 23.2778 700.574 23.1115 701.392 23.1081C702.21 23.1047 703.021 23.2641 703.776 23.5771C704.532 23.8902 705.217 24.3505 705.793 24.9313C706.369 25.5122 706.824 26.2018 707.13 26.9601C707.437 27.7184 707.59 28.5301 707.579 29.3479C707.569 30.1658 707.396 30.9733 707.07 31.7236C706.744 32.4739 706.273 33.1519 705.683 33.7179L557.158 180.738C555.998 181.875 554.435 182.508 552.81 182.499C551.185 182.49 549.63 181.839 548.482 180.689Z" fill="#F54100"/>
<path d="M652.567 121.338C651.414 120.179 650.768 118.611 650.768 116.976C650.768 115.341 651.414 113.772 652.567 112.613L718.844 47.0271C719.415 46.4415 720.097 45.9756 720.85 45.6562C721.603 45.3369 722.411 45.1706 723.229 45.1672C724.047 45.1637 724.858 45.3232 725.613 45.6362C726.369 45.9492 727.054 46.4096 727.63 46.9904C728.206 47.5712 728.661 48.2609 728.967 49.0192C729.274 49.7775 729.427 50.5892 729.416 51.407C729.406 52.2249 729.233 53.0324 728.907 53.7827C728.581 54.5329 728.11 55.2108 727.52 55.7768L661.243 121.387C660.083 122.525 658.52 123.158 656.895 123.149C655.27 123.139 653.715 122.489 652.567 121.338Z" fill="#F54100"/>
<path d="M502.615 269.739C501.463 268.584 500.817 267.019 500.817 265.388C500.817 263.758 501.463 262.193 502.615 261.038L636.473 128.535C637.044 127.95 637.726 127.484 638.479 127.164C639.232 126.845 640.041 126.679 640.859 126.675C641.677 126.672 642.487 126.831 643.243 127.144C643.998 127.457 644.684 127.918 645.26 128.499C645.836 129.079 646.29 129.769 646.597 130.527C646.903 131.285 647.056 132.097 647.046 132.915C647.035 133.733 646.862 134.541 646.537 135.291C646.211 136.041 645.74 136.719 645.149 137.285L511.29 269.788C510.127 270.919 508.565 271.548 506.942 271.539C505.319 271.53 503.765 270.883 502.615 269.739Z" fill="#F54100"/>
<path d="M521.667 289.037C520.515 287.882 519.869 286.318 519.869 284.687C519.869 283.056 520.515 281.492 521.667 280.337L603.15 199.692C604.33 198.648 605.864 198.096 607.438 198.149C609.012 198.202 610.506 198.855 611.613 199.975C612.72 201.095 613.357 202.597 613.392 204.171C613.427 205.745 612.857 207.273 611.801 208.441L530.465 289.087C529.887 289.665 529.199 290.124 528.442 290.435C527.685 290.746 526.874 290.904 526.056 290.899C525.237 290.895 524.429 290.728 523.675 290.408C522.922 290.089 522.239 289.623 521.667 289.037Z" fill="#F54100"/>
<path d="M543.997 311.565C542.844 310.405 542.197 308.837 542.197 307.202C542.197 305.567 542.844 303.999 543.997 302.84L573.08 274.052C573.651 273.466 574.333 273 575.086 272.681C575.839 272.361 576.649 272.195 577.467 272.192C578.285 272.188 579.095 272.348 579.851 272.661C580.607 272.974 581.292 273.434 581.868 274.015C582.444 274.596 582.898 275.286 583.205 276.044C583.512 276.802 583.664 277.614 583.654 278.432C583.644 279.249 583.471 280.057 583.145 280.807C582.819 281.558 582.347 282.236 581.756 282.802L552.673 311.614C551.509 312.745 549.948 313.374 548.325 313.365C546.702 313.356 545.148 312.709 543.997 311.565Z" fill="#F54100"/>
<path d="M566.278 334.191C565.127 333.036 564.48 331.471 564.48 329.841C564.48 328.21 565.127 326.645 566.278 325.49L681.306 211.645C681.877 211.06 682.559 210.594 683.312 210.274C684.065 209.955 684.874 209.789 685.692 209.785C686.51 209.782 687.32 209.941 688.076 210.255C688.831 210.568 689.517 211.028 690.093 211.609C690.669 212.19 691.123 212.879 691.43 213.637C691.736 214.395 691.889 215.207 691.879 216.025C691.868 216.843 691.695 217.651 691.37 218.401C691.044 219.151 690.572 219.829 689.982 220.395L575.003 334.191C574.431 334.765 573.751 335.22 573.002 335.531C572.253 335.841 571.451 336.001 570.641 336.001C569.83 336.001 569.027 335.841 568.278 335.531C567.53 335.22 566.851 334.765 566.278 334.191Z" fill="#F54100"/>
<path d="M587.671 355.683C587.097 355.111 586.642 354.431 586.332 353.682C586.021 352.934 585.861 352.131 585.861 351.32C585.861 350.51 586.021 349.707 586.332 348.959C586.642 348.21 587.097 347.53 587.671 346.958L636.965 298.157C637.536 297.571 638.219 297.105 638.972 296.786C639.725 296.466 640.534 296.3 641.352 296.297C642.17 296.293 642.98 296.453 643.736 296.766C644.492 297.079 645.177 297.539 645.753 298.12C646.329 298.701 646.784 299.39 647.09 300.149C647.397 300.907 647.549 301.719 647.539 302.536C647.529 303.354 647.356 304.162 647.03 304.912C646.704 305.662 646.232 306.34 645.641 306.907L596.347 355.708C595.193 356.854 593.632 357.496 592.005 357.491C590.378 357.487 588.819 356.836 587.671 355.683Z" fill="#F54100"/>
<path d="M655.353 288.668C654.202 287.513 653.555 285.948 653.555 284.317C653.555 282.687 654.202 281.122 655.353 279.967L748.642 187.639C749.821 186.596 751.356 186.044 752.93 186.097C754.504 186.149 755.998 186.803 757.106 187.923C758.213 189.042 758.85 190.544 758.884 192.118C758.919 193.693 758.35 195.221 757.293 196.389L664.028 288.717C662.864 289.848 661.304 290.477 659.681 290.468C658.058 290.459 656.504 289.812 655.353 288.668Z" fill="#F54100"/>
<path d="M767.941 177.238C766.789 176.083 766.143 174.518 766.143 172.888C766.143 171.257 766.789 169.692 767.941 168.537L803.876 132.947C805.04 131.796 806.612 131.155 808.248 131.164C809.885 131.174 811.451 131.833 812.601 132.996C813.752 134.16 814.393 135.733 814.384 137.369C814.375 139.005 813.716 140.571 812.552 141.721L776.592 177.287C775.433 178.417 773.875 179.045 772.256 179.036C770.637 179.027 769.087 178.381 767.941 177.238Z" fill="#F54100"/>
<path d="M701.985 199.765C700.833 198.606 700.185 197.038 700.185 195.403C700.185 193.768 700.833 192.2 701.985 191.041L782.507 111.356C783.687 110.313 785.221 109.761 786.795 109.814C788.369 109.867 789.863 110.52 790.97 111.64C792.077 112.76 792.714 114.261 792.749 115.836C792.784 117.41 792.215 118.938 791.158 120.106L710.661 199.815C709.498 200.946 707.936 201.575 706.313 201.566C704.69 201.557 703.136 200.91 701.985 199.765Z" fill="#F54100"/>
<path d="M719.953 137.408C718.8 136.249 718.153 134.68 718.153 133.045C718.153 131.411 718.8 129.842 719.953 128.683L760.201 88.8532C760.772 88.2676 761.454 87.8015 762.207 87.4821C762.96 87.1628 763.77 86.9966 764.588 86.9932C765.406 86.9898 766.216 87.1492 766.972 87.4623C767.727 87.7753 768.413 88.2355 768.989 88.8163C769.565 89.3971 770.019 90.0868 770.326 90.8451C770.632 91.6034 770.785 92.4151 770.775 93.2329C770.764 94.0508 770.591 94.8585 770.266 95.6087C769.94 96.359 769.467 97.0369 768.877 97.6029L728.703 137.457C728.125 138.029 727.44 138.481 726.688 138.787C725.935 139.094 725.13 139.25 724.317 139.245C723.505 139.24 722.701 139.076 721.952 138.761C721.203 138.445 720.524 137.986 719.953 137.408Z" fill="#F54100"/>
<path d="M593.315 262.714C592.162 261.555 591.516 259.986 591.516 258.352C591.516 256.717 592.162 255.148 593.315 253.989L703.143 145.295C704.323 144.252 705.857 143.7 707.431 143.753C709.005 143.805 710.5 144.459 711.607 145.579C712.714 146.699 713.351 148.2 713.386 149.774C713.421 151.349 712.851 152.877 711.795 154.045L602.017 262.714C600.862 263.865 599.297 264.512 597.666 264.512C596.035 264.512 594.47 263.865 593.315 262.714Z" fill="#F54100"/>
<path d="M622.941 188.773C621.788 187.614 621.142 186.045 621.142 184.41C621.142 182.775 621.788 181.207 622.941 180.048L737.921 66.252C738.492 65.6664 739.173 65.2004 739.926 64.8811C740.679 64.5617 741.489 64.3954 742.307 64.392C743.125 64.3886 743.935 64.548 744.691 64.8611C745.446 65.1741 746.132 65.6345 746.708 66.2153C747.284 66.7961 747.738 67.4858 748.045 68.244C748.351 69.0023 748.504 69.814 748.494 70.6319C748.483 71.4497 748.31 72.2573 747.985 73.0075C747.659 73.7578 747.186 74.4358 746.596 75.0018L631.617 188.822C630.454 189.954 628.892 190.583 627.269 190.573C625.646 190.564 624.092 189.917 622.941 188.773Z" fill="#F54100"/>
<path d="M439.788 332.81C416.472 332.81 404.741 326.156 393.403 319.698C382.977 313.758 373.143 308.163 353.081 308.163C333.018 308.163 323.208 313.758 312.782 319.698C301.42 326.156 289.688 332.81 266.397 332.81C243.105 332.81 231.348 326.156 220.01 319.698C209.584 313.758 199.75 308.163 179.712 308.163C159.674 308.163 149.815 313.758 139.389 319.698C128.052 326.156 116.32 332.81 93.004 332.81C69.6878 332.81 57.9797 326.156 46.6174 319.698C36.1916 313.758 26.3584 308.163 6.32026 308.163C4.68605 308.163 3.11804 307.514 1.96248 306.359C0.806926 305.203 0.158478 303.636 0.158478 302.002C0.158478 300.367 0.806926 298.8 1.96248 297.645C3.11804 296.489 4.68605 295.84 6.32026 295.84C29.6118 295.84 41.368 302.519 52.7057 308.977C63.1315 314.892 72.9659 320.487 93.004 320.487C113.042 320.487 122.901 314.892 133.302 308.977C144.665 302.519 156.396 295.84 179.712 295.84C203.028 295.84 214.736 302.519 226.099 308.977C236.5 314.892 246.359 320.487 266.397 320.487C286.435 320.487 296.268 314.892 306.694 308.977C318.032 302.519 329.789 295.84 353.081 295.84C376.372 295.84 388.129 302.519 399.491 308.977C409.892 314.892 419.75 320.487 439.788 320.487C441.423 320.487 442.991 321.136 444.146 322.292C445.302 323.447 445.95 325.014 445.95 326.649C445.95 328.283 445.302 329.85 444.146 331.006C442.991 332.161 441.423 332.81 439.788 332.81Z" fill="#F54100"/>
<path d="M439.788 372.172C416.472 372.172 404.741 365.493 393.403 359.035C382.977 353.12 373.143 347.525 353.081 347.525C333.018 347.525 323.208 353.095 312.782 359.035C301.42 365.493 289.688 372.172 266.397 372.172C243.105 372.172 231.348 365.493 220.01 359.035C209.584 353.095 199.75 347.525 179.712 347.525C159.674 347.525 149.815 353.12 139.389 359.035C128.052 365.493 116.32 372.172 93.004 372.172C69.6878 372.172 57.9797 365.493 46.6174 359.035C36.1916 353.095 26.3584 347.525 6.32026 347.525C4.68605 347.525 3.11804 346.876 1.96248 345.72C0.806926 344.565 0.158478 342.997 0.158478 341.363C0.158478 339.729 0.806926 338.162 1.96248 337.006C3.11804 335.85 4.68605 335.201 6.32026 335.201C29.6118 335.201 41.368 341.856 52.7057 348.314C63.1315 354.254 72.9659 359.849 93.004 359.849C113.042 359.849 122.901 354.254 133.302 348.314C144.665 341.856 156.396 335.201 179.712 335.201C203.028 335.201 214.736 341.856 226.099 348.314C236.5 354.254 246.359 359.849 266.397 359.849C286.435 359.849 296.268 354.254 306.694 348.314C318.032 341.856 329.789 335.201 353.081 335.201C376.372 335.201 388.129 341.856 399.491 348.314C409.892 354.254 419.75 359.849 439.788 359.849C441.423 359.849 442.991 360.498 444.146 361.653C445.302 362.809 445.95 364.376 445.95 366.01C445.95 367.645 445.302 369.212 444.146 370.367C442.991 371.523 441.423 372.172 439.788 372.172Z" fill="#F54100"/>
<path d="M439.788 411.509C416.472 411.509 404.741 404.83 393.403 398.372C382.977 392.457 373.143 386.862 353.081 386.862C333.018 386.862 323.208 392.457 312.782 398.372C301.42 404.83 289.688 411.509 266.397 411.509C243.105 411.509 231.348 404.83 220.01 398.372C209.584 392.457 199.75 386.862 179.712 386.862C159.674 386.862 149.815 392.457 139.389 398.372C128.052 404.83 116.32 411.509 93.004 411.509C69.6878 411.509 57.9797 404.83 46.6174 398.372C36.1916 392.457 26.3584 386.862 6.32026 386.862C4.68605 386.862 3.11804 386.213 1.96248 385.057C0.806926 383.901 0.158478 382.334 0.158478 380.7C0.158478 379.066 0.806926 377.498 1.96248 376.343C3.11804 375.187 4.68605 374.538 6.32026 374.538C29.6118 374.538 41.368 381.217 52.7057 387.675C63.1315 393.59 72.9659 399.185 93.004 399.185C113.042 399.185 122.901 393.59 133.302 387.675C144.665 381.217 156.396 374.538 179.712 374.538C203.028 374.538 214.736 381.217 226.099 387.675C236.5 393.59 246.359 399.185 266.397 399.185C286.435 399.185 296.268 393.59 306.694 387.675C318.032 381.217 329.789 374.538 353.081 374.538C376.372 374.538 388.129 381.217 399.491 387.675C409.892 393.59 419.75 399.185 439.788 399.185C441.423 399.185 442.991 399.834 444.146 400.99C445.302 402.145 445.95 403.713 445.95 405.347C445.95 406.981 445.302 408.549 444.146 409.704C442.991 410.86 441.423 411.509 439.788 411.509Z" fill="#F54100"/>
<path d="M439.788 450.845C416.472 450.845 404.741 444.166 393.403 437.709C382.977 431.793 373.143 426.198 353.081 426.198C333.018 426.198 323.208 431.793 312.782 437.709C301.42 444.166 289.688 450.845 266.397 450.845C243.105 450.845 231.348 444.166 220.01 437.709C209.584 431.793 199.75 426.198 179.712 426.198C159.674 426.198 149.815 431.793 139.389 437.709C128.052 444.166 116.32 450.845 93.004 450.845C69.6878 450.845 57.9797 444.166 46.6174 437.709C36.1916 431.793 26.3584 426.198 6.32026 426.198C4.68605 426.198 3.11804 425.549 1.96248 424.394C0.806926 423.238 0.158478 421.671 0.158478 420.037C0.158478 418.402 0.806926 416.835 1.96248 415.68C3.11804 414.524 4.68605 413.875 6.32026 413.875C29.6118 413.875 41.368 420.554 52.7057 427.012C63.1315 432.927 72.9659 438.522 93.004 438.522C113.042 438.522 122.901 432.927 133.302 427.012C144.665 420.554 156.396 413.875 179.712 413.875C203.028 413.875 214.736 420.554 226.099 427.012C236.5 432.927 246.359 438.522 266.397 438.522C286.435 438.522 296.268 432.927 306.694 427.012C318.032 420.554 329.789 413.875 353.081 413.875C376.372 413.875 388.129 420.554 399.491 427.012C409.892 432.927 419.75 438.522 439.788 438.522C441.423 438.522 442.991 439.171 444.146 440.327C445.302 441.482 445.95 443.049 445.95 444.684C445.95 446.318 445.302 447.885 444.146 449.041C442.991 450.196 441.423 450.845 439.788 450.845Z" fill="#F54100"/>
<path d="M439.788 490.183C416.472 490.183 404.741 483.503 393.403 477.07C382.977 471.13 373.143 465.535 353.081 465.535C333.018 465.535 323.208 471.13 312.782 477.07C301.42 483.503 289.688 490.183 266.397 490.183C243.105 490.183 231.348 483.503 220.01 477.07C209.584 471.13 199.75 465.535 179.712 465.535C159.674 465.535 149.815 471.13 139.389 477.07C128.052 483.503 116.32 490.183 93.004 490.183C69.6878 490.183 57.9797 483.503 46.6174 477.07C36.1916 471.13 26.3584 465.535 6.32026 465.535C4.68605 465.535 3.11804 464.886 1.96248 463.731C0.806926 462.575 0.158478 461.008 0.158478 459.374C0.158478 457.739 0.806926 456.172 1.96248 455.017C3.11804 453.861 4.68605 453.212 6.32026 453.212C29.6118 453.212 41.368 459.891 52.7057 466.349C63.1315 472.264 72.9659 477.859 93.004 477.859C113.042 477.859 122.901 472.264 133.302 466.349C144.665 459.891 156.396 453.212 179.712 453.212C203.028 453.212 214.736 459.891 226.099 466.349C236.5 472.264 246.359 477.859 266.397 477.859C286.435 477.859 296.268 472.264 306.694 466.349C318.032 459.891 329.789 453.212 353.081 453.212C376.372 453.212 388.129 459.891 399.491 466.349C409.892 472.264 419.75 477.859 439.788 477.859C441.423 477.859 442.991 478.508 444.146 479.664C445.302 480.819 445.95 482.387 445.95 484.021C445.95 485.655 445.302 487.222 444.146 488.378C442.991 489.533 441.423 490.183 439.788 490.183Z" fill="#F54100"/>
</svg>
