<svg width="75" height="75" viewBox="0 0 75 75" fill="none" xmlns="http://www.w3.org/2000/svg">
<path d="M63.4818 63.2067C59.0693 66.6256 55.3082 62.2654 51.3198 65.1636C47.3313 68.0618 48.2101 72.6031 43.4074 73.2759C37.0436 74.1816 38.1376 69.7503 33.2918 69.6306C28.446 69.5109 26.4426 73.9844 21.8703 72.2927C17.298 70.601 19.7193 65.0762 15.8722 61.9807C12.0251 58.8852 8.13495 60.8778 5.88567 56.3591C3.51349 51.5945 7.38826 49.6343 5.99936 44.7468C4.61047 39.8594 0.714183 38.0059 1.69747 33.0117C2.61931 28.4089 7.99667 29.5637 9.01376 24.576C10.0308 19.5882 7.78464 16.7741 11.2569 13.2096C14.9442 9.42833 17.6821 13.7853 21.6705 10.8872C25.659 7.98896 24.6511 3.31176 29.2972 1.84972C33.9432 0.387689 35.3413 6.09026 40.1349 6.85363C44.9284 7.61699 47.3774 1.90468 51.9528 3.59637C56.5281 5.28806 52.6564 10.7125 56.5066 13.821C60.3568 16.9294 64.1241 13.1223 67.793 17.7607C70.8965 21.681 66.4993 25.0676 67.8882 29.9551C69.2771 34.8425 73.7572 32.7886 73.4469 39.1478C73.1211 45.8467 68.6656 44.0353 67.0586 48.8516C65.4515 53.6679 67.3843 60.1662 63.4818 63.2067Z" fill="#FEC700"/>
<path d="M41.8276 75C38.8808 75 37.5257 73.745 36.398 72.7035C35.5007 71.8722 34.8616 71.2738 33.2545 71.235H33.1009C31.3955 71.235 30.0896 71.9466 28.7068 72.6938C26.7372 73.7644 24.5063 74.958 21.3598 73.8097C18.118 72.6097 17.5035 69.8312 17.0087 67.5993C16.6246 65.8526 16.2897 64.342 14.9377 63.2584C13.5857 62.1748 12.1722 61.8223 10.7311 61.4665C8.58011 60.949 6.14648 60.3603 4.52405 57.0998C2.95693 53.9526 3.65446 51.601 4.21677 49.7411C4.65618 48.2662 5.03721 46.9917 4.52405 45.2127C4.04777 43.5307 3.19968 42.2077 2.37311 40.93C0.94119 38.6982 -0.539918 36.4016 0.194477 32.6851C0.787524 29.6931 2.84014 28.519 4.49637 27.5745C6.1526 26.63 7.16355 25.9733 7.51692 24.2396C7.77781 22.8023 7.85019 21.3341 7.73202 19.8761C7.6214 17.3887 7.51078 14.814 10.1902 12.0549C12.6669 9.50281 14.9807 9.86829 16.8397 10.1626C18.2778 10.3891 19.4147 10.5702 20.8036 9.55773C22.2663 8.49355 22.9208 7.10919 23.6152 5.64392C24.5739 3.6126 25.6617 1.3128 28.8635 0.303606C32.2436 -0.760575 34.4376 1.19307 36.1952 2.76185C37.4735 3.90689 38.6841 4.98731 40.3711 5.25578C42.1072 5.53072 43.4869 4.66062 45.0878 3.63849C47.1036 2.36729 49.3897 0.924625 52.4625 2.05997C55.8426 3.30852 55.9593 6.23907 56.0484 8.38037C56.1283 10.3211 56.2389 11.5568 57.4435 12.5239C58.7617 13.5848 60.0277 13.5816 61.6532 13.5849C63.8041 13.5849 66.4959 13.5848 68.9756 16.7159C71.2187 19.5462 70.4229 22.3279 69.7838 24.5598C69.3167 26.203 68.8619 27.7556 69.3628 29.4828C69.8053 31.0451 70.6196 31.5982 71.652 32.2969C73.2345 33.3676 75.2041 34.7035 74.9829 39.2222C74.7586 43.8542 72.6783 45.2935 71.0098 46.4483C69.9036 47.2116 69.0309 47.8165 68.5116 49.3756C67.9923 50.9347 67.8971 52.9142 67.7865 54.8C67.6082 58.2481 67.4085 62.1587 64.388 64.5038C61.5917 66.6742 58.9307 66.2666 56.789 65.9431C55.0129 65.6714 53.6117 65.4579 52.1798 66.493C50.7479 67.5281 50.0995 68.7799 49.3866 70.1191C48.3235 72.1148 47.1158 74.3758 43.6006 74.8739C43.0129 74.9578 42.4206 74.9999 41.8276 75V75ZM33.0947 67.9971H33.3283C36.0415 68.0651 37.3628 69.291 38.426 70.2614C39.5507 71.2997 40.3619 72.0501 43.2011 71.6458C45.1984 71.3611 45.77 70.2904 46.7195 68.5146C47.4938 67.0623 48.4556 65.2542 50.4467 63.8084C52.8589 62.052 55.1819 62.4045 57.2315 62.7183C59.2195 63.0191 60.7867 63.2584 62.5689 61.8772C64.4125 60.4411 64.56 57.7402 64.7198 54.6124C64.8274 52.5002 64.938 50.3137 65.6171 48.2856C66.4805 45.6979 68.0569 44.6078 69.3228 43.728C70.7978 42.7091 71.7811 42.0363 71.9163 39.0378C72.0453 36.3919 71.3017 35.8971 69.9927 35.0011C68.8097 34.1989 67.1903 33.0991 66.4221 30.3918C65.6662 27.7362 66.3207 25.4493 66.8462 23.5991C67.4915 21.3349 67.768 20.1866 66.6188 18.7473C65.0609 16.7774 63.6259 16.7838 61.6562 16.7806C59.9048 16.7806 57.7262 16.7806 55.5814 15.0565C53.1754 13.1158 53.0648 10.4408 52.9818 8.4839C52.8927 6.33937 52.7944 5.57275 51.4454 5.07463C49.8107 4.46652 48.6215 5.13932 46.6642 6.36846C44.8205 7.52968 42.7371 8.84617 39.904 8.39656C37.3536 7.99224 35.679 6.49138 34.1979 5.16197C32.4433 3.59319 31.4508 2.80068 29.7362 3.34085C27.8126 3.94249 27.235 5.16844 26.3561 7.02186C25.5572 8.70708 24.6569 10.6187 22.5398 12.1551C20.1522 13.8921 18.0566 13.5622 16.3758 13.2969C14.6949 13.0317 13.7147 12.8765 12.3289 14.3029C10.6327 16.0496 10.6942 17.4081 10.7925 19.6626C10.9252 21.393 10.8311 23.1345 10.5129 24.8379C9.84609 28.1081 7.68899 29.3405 5.95594 30.3367C4.38882 31.236 3.49772 31.815 3.19044 33.2673C2.7203 35.6318 3.63909 37.0615 4.90815 39.0411C5.82998 40.4514 6.8409 42.0525 7.45546 44.2164C8.23287 46.9626 7.62141 49.0101 7.12976 50.6565C6.61968 52.3579 6.254 53.587 7.225 55.544C8.196 57.5009 9.46814 57.8081 11.4009 58.261C12.9373 58.6362 14.8855 59.1052 16.7844 60.632C19.0153 62.4239 19.5499 64.8563 19.9832 66.8132C20.4748 69.0257 20.779 70.1157 22.3584 70.6947C24.2605 71.3966 25.5265 70.7109 27.2749 69.76C28.8727 68.961 30.6519 67.9971 33.0947 67.9971V67.9971Z" fill="#F54100"/>
<path d="M36.4222 56.757C31.3207 56.7647 26.3902 54.8208 22.5486 51.2873C18.6308 47.671 16.4031 42.8774 16.2986 37.7506C16.1941 32.8987 18.0654 28.2215 21.5653 24.5761C25.6337 20.3355 31.4689 18.0325 37.6022 18.2427C51.4973 18.7279 53.2734 27.3416 53.4055 31.0226C53.51 34.1925 52.2071 38.7242 49.0544 41.6968C47.0848 43.5631 43.5418 45.6074 37.8572 44.7534C32.1726 43.8995 30.5194 40.3738 30.0124 38.3424C29.2012 35.1079 30.2859 31.2749 32.5351 29.4538C36.373 26.3486 40.3062 27.9142 41.8488 29.1757C42.1695 29.4383 42.3784 29.824 42.4297 30.2483C42.4809 30.6727 42.3704 31.1011 42.1222 31.4399C41.8732 31.778 41.507 31.9985 41.1039 32.0531C40.7007 32.1076 40.2935 31.9918 39.9713 31.731C39.6917 31.511 37.2365 29.7191 34.4065 32.0124C33.2818 32.9213 32.4399 35.3505 32.9807 37.5112C33.5215 39.6719 35.3652 41.1081 38.2874 41.5447C41.9071 42.0881 44.8386 41.328 46.9987 39.2805C49.3986 37.0163 50.4095 33.4583 50.3327 31.1197C50.0654 23.0946 42.1745 21.6229 37.4977 21.4579C32.2156 21.2768 27.1947 23.2434 23.7224 26.8565C20.8309 29.8711 19.2823 33.7106 19.3683 37.66C19.5557 46.2511 27.3575 53.5095 36.4191 53.5095C44.774 53.5095 54.7237 46.4807 55.6455 36.3921C55.6852 35.9653 55.8842 35.5726 56.1988 35.3002C56.5134 35.0279 56.9179 34.8982 57.3233 34.9397C57.7286 34.9807 58.102 35.1893 58.3612 35.5198C58.6205 35.8504 58.7445 36.2758 58.706 36.7026C57.8211 46.3869 48.655 56.757 36.4222 56.757Z" fill="#F54100"/>
</svg>
