<svg width="182" height="151" viewBox="0 0 182 151" fill="none" xmlns="http://www.w3.org/2000/svg">
<g clip-path="url(#clip0_87_375)">
<path d="M162.034 125.151C169.38 119.304 182.721 109.51 180.671 94.0714C177.459 69.9127 161.165 50.4596 151.455 39.1411C144.851 31.442 111.092 0.960765 85.8486 1.72417C56.9547 2.60021 32.506 34.9286 19.9121 51.2705C15.0612 57.573 -0.113644 92.8199 1.19214 104.006C1.93949 110.433 5.30397 119.927 9.52693 125.151C17.7367 135.3 34.2174 146.111 44.8331 148.566C58.6216 151.752 87.7656 148.887 101.721 146.356C117.588 143.473 149.907 134.81 162.034 125.151Z" fill="white"/>
<path d="M61.6388 150.974C55.0071 150.974 48.9838 150.559 44.5608 149.535C33.6311 147.009 16.842 135.891 8.63227 125.742C4.22594 120.295 0.833676 110.466 0.0863228 104.111C-0.708261 97.3053 4.19815 83.2511 7.19312 75.4793C11.3605 64.704 16.4197 54.0539 19.0008 50.6999L19.6398 49.8714C32.6365 32.9989 56.8296 1.60155 85.8208 0.725506C93.4527 0.49273 106.658 3.03825 126.314 16.4617C138.797 24.9893 148.899 34.5257 152.332 38.5279C161.462 49.1706 178.448 68.9816 181.782 93.9538C183.813 109.249 171.258 119.189 163.757 125.128L162.779 125.902C150.015 136.066 116.282 144.734 101.949 147.337C91.7524 149.189 75.3856 150.974 61.6388 150.974ZM86.7599 2.71287C86.4626 2.71287 86.1764 2.71287 85.8958 2.72538C58.0187 3.56888 34.2395 34.4381 21.4651 51.0203L20.8372 51.8513C15.8947 58.2489 1.03371 93.0702 2.29782 103.901C3.00628 109.995 6.24296 119.389 10.427 124.563C18.3868 134.402 34.5979 145.165 45.1137 147.59C58.3743 150.656 86.5987 148.078 101.512 145.37C115.659 142.799 148.885 134.292 161.315 124.397L162.295 123.619C166.099 120.615 170.833 116.861 174.478 111.978C178.743 106.263 180.412 100.444 179.579 94.1866C176.32 69.7675 159.573 50.2418 150.582 39.7569C146.97 35.5444 136.635 26.0281 124.978 18.0636C106.583 5.49117 94.1528 2.71287 86.7599 2.71287Z" fill="#02111B"/>
<path d="M45.2249 97.1976C45.1511 97.1984 45.0775 97.1917 45.0054 97.1776C44.7167 97.1256 44.4626 96.9725 44.2991 96.752C44.1355 96.5314 44.0758 96.2614 44.133 96.0012C45.1832 91.2731 54.9432 69.78 61.9139 63.3875C62.1223 63.2057 62.4013 63.1046 62.6914 63.1057C62.9814 63.1068 63.2595 63.21 63.4662 63.3933C63.673 63.5766 63.792 63.8255 63.7978 64.0868C63.8036 64.348 63.6959 64.601 63.4975 64.7916C56.9102 70.8238 47.2919 91.9364 46.3001 96.3942C46.2499 96.6187 46.1158 96.8209 45.9201 96.9671C45.7244 97.1133 45.4791 97.1947 45.2249 97.1976Z" fill="#02111B"/>
<path d="M140.882 81.8707C144.107 81.3174 146.152 78.1696 145.448 74.8399C144.744 71.5101 141.559 69.2594 138.333 69.8127C135.108 70.366 133.063 73.5138 133.767 76.8436C134.471 80.1733 137.656 82.424 140.882 81.8707Z" fill="#02111B"/>
<path d="M90.9405 89.4479C91.1708 86.0647 88.7007 83.1753 85.4232 82.9942C82.1458 82.8131 79.3022 85.4089 79.0719 88.7921C78.8415 92.1752 81.3117 95.0647 84.5891 95.2458C87.8665 95.4269 90.7101 92.8311 90.9405 89.4479Z" fill="#02111B"/>
<path d="M119.593 90.78L106.63 82.2874C106.507 82.2118 106.403 82.1148 106.323 82.0022C106.242 81.8896 106.188 81.7637 106.163 81.6318C106.137 81.4999 106.142 81.3648 106.175 81.2345C106.209 81.1042 106.271 80.9813 106.359 80.873C106.446 80.7647 106.556 80.6733 106.684 80.6042C106.811 80.5351 106.952 80.4896 107.099 80.4705C107.246 80.4514 107.396 80.459 107.54 80.4929C107.683 80.5269 107.818 80.5864 107.936 80.668L118.807 87.7915L124.308 78.2101C124.443 77.9741 124.678 77.7963 124.959 77.7158C125.24 77.6353 125.545 77.6587 125.807 77.7808C126.069 77.903 126.266 78.1139 126.355 78.3671C126.445 78.6203 126.419 78.8952 126.283 79.1312L119.593 90.78Z" fill="#02111B"/>
<path d="M150.893 131.616C150.893 131.616 151.068 110.706 149.96 106.041C148.851 101.375 146.445 92.2142 144.959 92.2142C143.473 92.2142 82.4479 107.207 81.72 108.539C80.9921 109.87 81.4033 148.994 81.4033 148.994C81.4033 148.994 113.631 143.801 123.466 141.235C130.918 139.303 150.893 131.616 150.893 131.616Z" fill="#02111B"/>
</g>
<defs>
<clipPath id="clip0_87_375">
<rect width="181.993" height="150.264" fill="white" transform="translate(0 0.711426)"/>
</clipPath>
</defs>
</svg>
