<svg width="320" height="290" viewBox="0 0 320 290" fill="none" xmlns="http://www.w3.org/2000/svg">
<g clip-path="url(#clip0_87_345)">
<path d="M166.66 288.981L204.151 251.961L226.532 140.903L180.648 168.81L166.66 288.981Z" fill="white"/>
<path fill-rule="evenodd" clip-rule="evenodd" d="M180.315 168.242L226.199 140.335L227.168 141.035L204.788 252.094L204.604 252.435L167.112 289.456L166.015 288.904L180.003 168.732L180.315 168.242ZM181.256 169.211L167.52 287.211L203.555 251.628L225.599 142.24L181.256 169.211Z" fill="#070707"/>
<path d="M49.7131 140.903L42.7656 103.25L58.4768 51.9099L79.1504 44.7539L105.61 72.1086V106.617L49.7131 140.903Z" fill="white"/>
<path fill-rule="evenodd" clip-rule="evenodd" d="M58.9989 52.4275L43.434 103.29L50.1791 139.845L104.961 106.243V72.3794L78.9738 45.5134L58.9989 52.4275ZM58.2678 51.284L78.9415 44.1279L79.6135 44.29L106.073 71.6447L106.26 72.1086V106.617L105.946 107.183L50.0486 141.469L49.075 141.025L42.1274 103.372L42.1457 103.054L57.8568 51.7133L58.2678 51.284Z" fill="#070707"/>
<path d="M106.756 82.7552L133.972 60.1315L169.112 64.0665V60.1315L160.705 58.2486L159.361 48.1519L177.52 33.7764L192.652 37.5421L200.891 67.901L231.827 71.0823L226.532 140.902L180.648 168.81L49.7134 140.902L106.756 82.7552Z" fill="white"/>
<path fill-rule="evenodd" clip-rule="evenodd" d="M177.121 33.2546L177.675 33.1343L192.806 36.9L193.278 37.3662L201.398 67.2889L231.893 70.4247L232.475 71.1333L227.18 140.953L226.865 141.47L180.982 169.378L180.515 169.457L49.5804 141.55L49.2539 140.435L106.297 82.2882L106.346 82.2432L133.561 59.6195L134.043 59.4744L168.463 63.3288V60.6631L160.565 58.8944L160.061 58.3374L158.718 48.2407L158.963 47.6301L177.121 33.2546ZM177.671 34.4946L160.055 48.4403L161.288 57.7023L169.252 59.4859L169.762 60.1316V64.0666L169.042 64.7238L134.172 60.8191L107.193 83.2462L51.0208 140.506L180.533 168.11L225.91 140.511L231.131 71.6753L200.826 68.5589L200.265 68.0772L192.127 38.0923L177.671 34.4946Z" fill="#070707"/>
<path d="M226.532 140.903L215.292 154.241L201.966 179.441L204.151 251.961L226.532 140.903Z" fill="white"/>
<path fill-rule="evenodd" clip-rule="evenodd" d="M214.799 153.811L226.039 140.472L227.168 141.035L204.787 252.094L203.502 251.981L201.317 179.461L201.394 179.128L214.72 153.928L214.799 153.811ZM215.831 154.618L202.621 179.598L204.63 246.293L225.391 143.272L215.831 154.618Z" fill="#070707"/>
<path d="M180.648 168.81L201.966 164.648L218.683 169.773L166.66 288.981L180.648 168.81Z" fill="white"/>
<path fill-rule="evenodd" clip-rule="evenodd" d="M181.237 169.368L167.81 284.716L217.79 170.189L201.932 165.327L181.237 169.368ZM180.526 168.161L201.844 163.998L202.154 164.015L218.87 169.14L219.277 170.041L167.253 289.25L166.015 288.904L180.003 168.732L180.526 168.161Z" fill="#070707"/>
<path d="M105.61 101.293L226.532 138.515L180.648 168.81L49.7134 138.515L105.61 101.293Z" fill="white"/>
<path fill-rule="evenodd" clip-rule="evenodd" d="M105.255 100.74L105.799 100.66L226.72 137.882L226.886 139.069L181.002 169.365L180.504 169.455L49.5695 139.159L49.3579 137.961L105.255 100.74ZM105.713 102.015L51.3496 138.215L180.525 168.103L225.005 138.735L105.713 102.015Z" fill="#070707"/>
<path d="M143.101 178.811C141.243 181.009 141.486 184.323 143.644 186.213C145.803 188.104 149.059 187.856 150.917 185.658L273.272 40.9731C275.13 38.7758 274.887 35.4618 272.729 33.571C270.57 31.6802 267.314 31.9286 265.456 34.1259L143.101 178.811Z" fill="#E9BCB7"/>
<path d="M150.791 175.846C149.517 178.439 150.549 181.592 153.096 182.888C155.642 184.185 158.74 183.134 160.014 180.541L243.906 9.8008C245.18 7.20785 244.149 4.0549 241.602 2.75847C239.055 1.46204 235.957 2.51307 234.683 5.10601L150.791 175.846Z" fill="#E9BCB7"/>
<path d="M180.648 168.81L177.141 129.343L126.284 75.4749L77.0824 72.1084L46.8994 108.722L49.7132 140.902L180.648 168.81Z" fill="white"/>
<path fill-rule="evenodd" clip-rule="evenodd" d="M76.5848 71.6834L77.1259 71.4487L126.328 74.8152L126.752 75.0167L177.609 128.885L177.787 129.284L181.295 168.75L180.515 169.457L49.5801 141.55L49.0663 140.961L46.2524 108.78L46.4018 108.297L76.5848 71.6834ZM77.3679 72.7905L47.5703 108.936L50.3176 140.356L179.922 167.98L176.514 129.634L125.99 76.1173L77.3679 72.7905Z" fill="#070707"/>
<path d="M180.648 168.81L192.852 128.5L218.485 76.7391L232.544 67.9011L238.333 94.4122L226.532 140.903L180.648 168.81Z" fill="white"/>
<path fill-rule="evenodd" clip-rule="evenodd" d="M218.983 77.2034L193.456 128.748L181.767 167.359L225.97 140.474L237.665 94.4006L232.108 68.9522L218.983 77.2034ZM218.144 76.1766L232.203 67.3386L233.178 67.7577L238.967 94.2688L238.962 94.5776L227.161 141.068L226.865 141.47L180.981 169.378L180.027 168.615L192.231 128.305L192.272 128.202L217.905 76.4415L218.144 76.1766Z" fill="#070707"/>
<path d="M49.7134 140.903L74.8949 262.214L166.66 288.981L180.648 168.81L49.7134 140.903Z" fill="white"/>
<path fill-rule="evenodd" clip-rule="evenodd" d="M49.0781 141.039L49.8468 140.255L180.782 168.163L181.294 168.888L167.305 289.059L166.481 289.617L74.7162 262.849L74.2596 262.35L49.0781 141.039ZM50.555 141.757L75.4498 261.688L166.105 288.132L179.934 169.333L50.555 141.757Z" fill="#070707"/>
<path d="M144.432 233.489C140.114 256.666 121.54 263.256 104.649 254.413C90.0863 246.786 77.3085 227.92 73.8426 208.245C69.566 183.968 79.7716 161.043 101.383 163.066C128.633 165.618 150.221 202.424 144.432 233.489Z" fill="#02111B"/>
<path d="M122.79 212.373L123.229 205.695C113.805 202.366 111.101 193.34 110.498 179.089L105.065 178.203C105.481 196.448 111.516 208.998 122.79 212.373Z" fill="#FEC700"/>
<path d="M99.2192 211.059L85.7217 206.637L86.1867 210.577L99.1153 215.073C98.7879 220.595 97.5564 222.478 93.9709 220.912C91.3519 219.77 89.3825 216.268 88.9876 213.624L86.4699 212.685C86.657 216.533 89.7151 222.684 94.2437 224.506C100.329 226.952 103.189 221.893 102.818 212.249L102.282 212.074L99.2192 211.059Z" fill="#FEC700"/>
<path d="M120.94 240.299L106.172 234.031L106.25 237.422L120.373 243.636C119.381 248.203 117.775 249.547 113.896 247.555C111.059 246.101 109.22 242.795 109.077 240.5L106.333 239.23C106.11 242.494 108.874 248.238 113.795 250.623C120.407 253.828 124.211 250.126 124.889 241.975L124.302 241.727L120.94 240.299Z" fill="#FEC700"/>
<path d="M97.9145 230.34L90.8995 227.365L91.2528 230.771L97.6859 233.661C97.0571 237.176 95.0877 238.538 90.8423 236.797L91.1826 239.741C97.8963 242.999 101.575 239.82 101.16 231.709L97.9145 230.34Z" fill="#FEC700"/>
<path d="M85.4616 184.992L83.6429 184.603L84.4639 191.492L87.8831 192.357C90.767 199.111 95.0384 203.789 100.695 205.476L100.435 199.394C97.4944 198.371 94.9795 196.367 93.2977 193.708L98.2342 194.938L97.8315 187.652L90.0915 185.986C89.7624 184.766 89.4636 183.467 89.1951 182.088L98.8967 183.995L98.494 176.297L81.7124 173.623L82.562 180.79L84.625 181.194C84.8778 182.511 85.1567 183.777 85.4616 184.992Z" fill="#FEC700"/>
<path d="M124.996 219.413C123.559 229.366 121.948 232.722 116.178 230.215C110.677 228.332 109.113 223.993 108.422 213.994L104.293 212.645C104.61 223.136 108.31 231.371 115.868 234.452C123.975 237.76 128.859 232.254 129.984 221.044L124.996 219.413Z" fill="#FEC700"/>
<path d="M120.285 219.251L116.668 216.02L112.496 224.9L115.839 227.962L120.285 219.251Z" fill="#FEC700"/>
</g>
<defs>
<clipPath id="clip0_87_345">
<rect width="319.499" height="289.206" fill="white"/>
</clipPath>
</defs>
</svg>
