<?xml version="1.0" encoding="UTF-8"?>
<svg id="Layer_2" data-name="Layer 2" xmlns="http://www.w3.org/2000/svg" viewBox="0 0 197.44 48.71">
  <defs>
    <style>
      .cls-1 {
        fill: #00a8cc;
        stroke: #fff;
        stroke-miterlimit: 10;
        stroke-width: 4px;
      }

      .cls-2 {
        fill: #162950;
      }

      .cls-3 {
        fill: #121212;
      }
    </style>
  </defs>
  <g id="Layer_1-2" data-name="Layer 1">
    <g id="Myriad_Font_Logo" data-name="Myriad Font Logo">
      <g>
        <g>
          <path class="cls-3" d="m1,43.65c-.28,0-.5-.22-.5-.5V5.56c0-.28.22-.5.5-.5h20.3c.28,0,.5.22.5.5v4.07c0,.28-.22.5-.5.5H6.35v10.88h14.11c.28,0,.5.22.5.5v4.01c0,.28-.22.5-.5.5H6.35v12.55h15.78c.28,0,.5.22.5.5v4.07c0,.28-.22.5-.5.5H1Z"/>
          <path class="cls-3" d="m21.3,5.56v4.07H5.85v11.88h14.61v4.01H5.85v13.55h16.28v4.07H1V5.56h20.3m0-1H1c-.55,0-1,.45-1,1v37.59c0,.55.45,1,1,1h21.13c.55,0,1-.45,1-1v-4.07c0-.55-.45-1-1-1H6.85v-11.55h13.61c.55,0,1-.45,1-1v-4.01c0-.55-.45-1-1-1H6.85v-9.88h14.45c.55,0,1-.45,1-1v-4.07c0-.55-.45-1-1-1h0Z"/>
        </g>
        <g>
          <path class="cls-3" d="m41.88,44.26c-9.02,0-14-5.88-14-16.56V5.56c0-.28.22-.5.5-.5h4.91c.28,0,.5.22.5.5v22.25c0,7.41,2.93,11.49,8.26,11.49,5.66,0,8.65-3.97,8.65-11.49V5.56c0-.28.22-.5.5-.5h4.91c.28,0,.5.22.5.5v21.92c0,10.67-5.37,16.78-14.72,16.78Z"/>
          <path class="cls-3" d="m56.1,5.56v21.92c0,11.54-6.08,16.28-14.22,16.28-7.7,0-13.5-4.41-13.5-16.06V5.56h4.91v22.25c0,8.42,3.74,11.99,8.76,11.99,5.58,0,9.15-3.68,9.15-11.99V5.56h4.91m0-1h-4.91c-.55,0-1,.45-1,1v22.25c0,7.29-2.74,10.99-8.15,10.99-5,0-7.76-3.9-7.76-10.99V5.56c0-.55-.45-1-1-1h-4.91c-.55,0-1,.45-1,1v22.14c0,14.84,9.08,17.06,14.5,17.06,9.67,0,15.22-6.3,15.22-17.28V5.56c0-.55-.45-1-1-1h0Z"/>
        </g>
        <g>
          <path class="cls-3" d="m72.22,44.21c-3.62,0-7.68-1.02-9.87-2.48-.18-.12-.26-.35-.2-.56l1.23-4.07c.04-.15.16-.27.3-.32.06-.02.12-.03.18-.03.09,0,.18.02.26.07,2.42,1.49,5.58,2.38,8.44,2.38,4.54,0,7.36-2.27,7.36-5.91,0-3.21-1.83-5.11-6.76-7.01-6.99-2.48-10.25-6.01-10.25-11.12,0-6.3,5.2-10.71,12.66-10.71,4.52,0,7.3,1.19,8.56,1.9.21.12.3.37.23.6l-1.34,3.96c-.05.14-.15.25-.29.31-.06.02-.12.03-.18.03-.08,0-.17-.02-.24-.06-1.44-.79-3.81-1.72-6.9-1.72-4.55,0-6.58,2.58-6.58,5.13,0,3.04,1.74,4.69,7.15,6.78,6.95,2.68,9.91,6.12,9.91,11.51s-3.58,11.32-13.66,11.32Z"/>
          <path class="cls-3" d="m75.56,4.95c3.85,0,6.64.89,8.31,1.84l-1.34,3.96c-1.23-.67-3.74-1.78-7.14-1.78-5.13,0-7.08,3.07-7.08,5.63,0,3.51,2.29,5.24,7.47,7.25,6.36,2.45,9.59,5.52,9.59,11.04,0,5.8-4.29,10.82-13.16,10.82-3.62,0-7.58-1.06-9.59-2.4l1.23-4.07c2.17,1.34,5.35,2.45,8.7,2.45,4.96,0,7.86-2.62,7.86-6.41,0-3.51-2.01-5.52-7.08-7.47-6.13-2.18-9.93-5.35-9.93-10.65,0-5.86,4.85-10.21,12.16-10.21m0-1c-7.75,0-13.16,4.61-13.16,11.21,0,5.35,3.37,9.03,10.59,11.59,5.36,2.06,6.42,3.96,6.42,6.53,0,3.34-2.63,5.41-6.86,5.41-2.77,0-5.83-.86-8.18-2.31-.16-.1-.34-.15-.52-.15-.12,0-.24.02-.36.07-.29.11-.51.35-.6.65l-1.23,4.07c-.13.42.04.88.4,1.12,2.27,1.51,6.44,2.57,10.15,2.57,10.45,0,14.16-6.37,14.16-11.82s-3.06-9.21-10.23-11.97c-5.17-2-6.83-3.54-6.83-6.32,0-2.14,1.59-4.63,6.08-4.63,2.99,0,5.27.9,6.66,1.66.15.08.31.12.48.12.12,0,.25-.02.36-.07.28-.11.49-.33.58-.61l1.34-3.96c.15-.45-.04-.95-.45-1.19-1.3-.74-4.17-1.97-8.8-1.97h0Z"/>
        </g>
        <g>
          <path class="cls-3" d="m99.15,43.65c-.28,0-.5-.22-.5-.5V10.19h-10.93c-.28,0-.5-.22-.5-.5v-4.13c0-.28.22-.5.5-.5h27.83c.28,0,.5.22.5.5v4.13c0,.28-.22.5-.5.5h-10.99v32.96c0,.28-.22.5-.5.5h-4.91Z"/>
          <path class="cls-3" d="m115.55,5.56v4.13h-11.49v33.46h-4.91V9.69h-11.43v-4.13h27.83m0-1h-27.83c-.55,0-1,.45-1,1v4.13c0,.55.45,1,1,1h10.43v32.46c0,.55.45,1,1,1h4.91c.55,0,1-.45,1-1V10.69h10.49c.55,0,1-.45,1-1v-4.13c0-.55-.45-1-1-1h0Z"/>
        </g>
        <g>
          <path class="cls-3" d="m139.19,43.65c-.18,0-.34-.1-.43-.25-.58-1.01-1.33-3.65-2.56-9.12-1.06-4.95-2.91-6.76-7.06-6.92h-4.05v15.78c0,.28-.22.5-.5.5h-4.85c-.28,0-.5-.22-.5-.5V6.07c0-.24.17-.44.4-.49,2.42-.5,5.94-.79,9.41-.79,5.31,0,8.77.99,11.21,3.2,2.01,1.77,3.12,4.44,3.12,7.51,0,4.39-2.39,7.95-6.46,9.7,2.4,1.22,4,3.7,4.88,7.54,1.15,4.9,2.09,8.77,2.85,10.19.08.15.08.34-.01.49-.09.15-.25.24-.43.24h-5.02Zm-9.65-20.96c4.85,0,7.98-2.61,7.98-6.64,0-5.32-4.43-6.49-8.15-6.53-2,0-3.46.16-4.29.34v12.83h4.46Z"/>
          <path class="cls-3" d="m129.04,5.28c5.19,0,8.53.95,10.87,3.07,1.9,1.67,2.96,4.24,2.96,7.14,0,4.96-3.12,8.25-7.08,9.59v.17c2.9,1,4.63,3.68,5.52,7.58,1.23,5.24,2.12,8.87,2.9,10.32h-5.02c-.61-1.06-1.45-4.29-2.51-8.98-1.12-5.19-3.12-7.14-7.53-7.31h-4.57v16.28h-4.85V6.07c2.45-.5,5.97-.78,9.31-.78m-4.46,17.9h4.96c5.19,0,8.48-2.84,8.48-7.14,0-4.85-3.51-6.97-8.64-7.03-2.34,0-4.01.22-4.8.45v13.72m4.46-18.9c-3.5,0-7.06.3-9.51.8-.47.1-.8.5-.8.98v37.08c0,.55.45,1,1,1h4.85c.55,0,1-.45,1-1v-15.28h3.57c3.87.15,5.53,1.79,6.55,6.52,1.25,5.53,2.01,8.21,2.62,9.27.18.31.51.5.87.5h5.02c.35,0,.68-.19.86-.49.18-.3.19-.68.02-.99-.74-1.37-1.67-5.2-2.81-10.07-.79-3.48-2.24-5.95-4.31-7.37,3.73-1.94,5.9-5.46,5.9-9.75,0-3.21-1.17-6.01-3.29-7.89-2.53-2.29-6.09-3.32-11.54-3.32h0Zm-3.46,5.99c.83-.14,2.13-.25,3.8-.25,5.07.06,7.64,2.08,7.64,6.03s-2.86,6.14-7.48,6.14h-3.96v-11.91h0Z"/>
        </g>
      </g>
      <g>
        <path class="cls-2" d="m180.07,0h-18.61c-2.87,0-5.52,1.54-6.94,4.03l-9.36,16.36c-1.41,2.46-1.41,5.49,0,7.95l9.36,16.36c1.43,2.49,4.07,4.03,6.94,4.03h18.61c2.87,0,5.52-1.54,6.94-4.03l9.36-16.36c1.41-2.46,1.41-5.49,0-7.95l-9.36-16.36c-1.43-2.49-4.07-4.03-6.94-4.03Z"/>
        <circle class="cls-1" cx="170.77" cy="24.36" r="13.94"/>
      </g>
    </g>
  </g>
</svg>